<svg width="18" height="18" viewBox="0 0 18 18" fill="none" xmlns="http://www.w3.org/2000/svg">
    <path fill-rule="evenodd" clip-rule="evenodd" d="M8.99992 15.6665C5.31802 15.6665 2.33325 12.6817 2.33325 8.99984C2.33325 5.31794 5.31802 2.33317 8.99992 2.33317C12.6818 2.33317 15.6666 5.31794 15.6666 8.99984C15.6666 12.6817 12.6818 15.6665 8.99992 15.6665ZM9.60666 5.90844C9.28004 6.23269 9.27812 6.76032 9.60237 7.08694L10.6374 8.12954L5.66545 8.12954C5.20522 8.12954 4.83212 8.50264 4.83212 8.96287C4.83212 9.42311 5.20522 9.79621 5.66545 9.79621L10.7108 9.79621L9.60237 10.9127C9.27812 11.2394 9.28004 11.767 9.60666 12.0912C9.93328 12.4155 10.4609 12.4136 10.7852 12.0869L12.6842 10.174C13.3293 9.52417 13.3293 8.47551 12.6842 7.82563L10.7852 5.91273C10.4609 5.58611 9.93328 5.58419 9.60666 5.90844Z" fill="#13B67B"/>
    <path fill-rule="evenodd" clip-rule="evenodd" d="M8.99992 15.6665C5.31802 15.6665 2.33325 12.6817 2.33325 8.99984C2.33325 5.31794 5.31802 2.33317 8.99992 2.33317C12.6818 2.33317 15.6666 5.31794 15.6666 8.99984C15.6666 12.6817 12.6818 15.6665 8.99992 15.6665ZM8.99992 17.3332C4.39755 17.3332 0.666584 13.6022 0.666584 8.99984C0.666584 4.39746 4.39755 0.666504 8.99992 0.666504C13.6023 0.666504 17.3333 4.39746 17.3333 8.99984C17.3333 13.6022 13.6023 17.3332 8.99992 17.3332Z" fill="#13B67B"/>
</svg>
