<svg width="70" height="70" viewBox="0 0 70 70" fill="none" xmlns="http://www.w3.org/2000/svg">
<path fill-rule="evenodd" clip-rule="evenodd" d="M56.875 38.9551H13.125V59.2026C13.125 60.1684 13.7583 61.0204 14.6836 61.2982C19.0794 62.6162 31.4409 66.3251 34.3711 67.2045C34.7812 67.327 35.2188 67.327 35.6289 67.2045C38.5591 66.3251 50.9206 62.6162 55.3164 61.2982C56.2417 61.0204 56.875 60.1684 56.875 59.2026C56.875 54.132 56.875 38.9551 56.875 38.9551Z" fill="#E6EAEF"/>
<path fill-rule="evenodd" clip-rule="evenodd" d="M56.8748 38.9551H34.9998C34.9998 38.9551 34.7876 67.2963 34.9998 67.2963C35.212 67.2963 35.4231 67.2657 35.6287 67.2045C38.5589 66.3251 50.9205 62.6162 55.3162 61.2982C56.2415 61.0204 56.8748 60.1684 56.8748 59.2026C56.8748 54.132 56.8748 38.9551 56.8748 38.9551Z" fill="#DCE0E7"/>
<path fill-rule="evenodd" clip-rule="evenodd" d="M34.9999 46.0524L13.1249 38.9551C13.1249 38.9551 9.28913 44.6426 7.57413 47.1845C7.38163 47.4699 7.3346 47.8276 7.44616 48.1524C7.55882 48.4773 7.81585 48.7299 8.14288 48.8371C12.298 50.1868 24.5983 54.1834 27.8249 55.2312C28.2876 55.3821 28.7951 55.2082 29.0685 54.8046C30.5352 52.6401 34.9999 46.0524 34.9999 46.0524Z" fill="#F4F4F4"/>
<path fill-rule="evenodd" clip-rule="evenodd" d="M56.875 38.9551L35 46.0524C35 46.0524 39.4647 52.6401 40.9314 54.8046C41.2048 55.2082 41.7123 55.3821 42.175 55.2312C45.4016 54.1834 57.7019 50.1868 61.857 48.8371C62.1841 48.7299 62.4411 48.4773 62.5538 48.1524C62.6653 47.8276 62.6183 47.4699 62.4258 47.1845C60.7108 44.6426 56.875 38.9551 56.875 38.9551Z" fill="#F4F4F4"/>
<path fill-rule="evenodd" clip-rule="evenodd" d="M29.7052 24.0466C29.4318 23.6452 28.9254 23.4713 28.4627 23.6222C25.2384 24.669 12.9348 28.6666 8.7796 30.0174C8.45257 30.1235 8.19444 30.3762 8.08288 30.701C7.97132 31.0258 8.01835 31.3846 8.21085 31.669C9.79022 34.0118 13.1251 38.9555 13.1251 38.9555L35.0001 31.8341C35.0001 31.8341 31.0713 26.0558 29.7052 24.0466Z" fill="#E6EAEF"/>
<path fill-rule="evenodd" clip-rule="evenodd" d="M61.7892 31.669C61.9817 31.3846 62.0288 31.0258 61.9172 30.701C61.8056 30.3762 61.5475 30.1235 61.2205 30.0174C57.0653 28.6666 44.7617 24.669 41.5373 23.6222C41.0747 23.4713 40.5683 23.6452 40.2948 24.0466C38.9288 26.0558 35 31.8341 35 31.8341L56.875 38.9555C56.875 38.9555 60.2098 34.0118 61.7892 31.669Z" fill="#F4F4F4"/>
<path fill-rule="evenodd" clip-rule="evenodd" d="M56.875 38.9554L35 31.834L13.125 38.9554L35 46.0527L56.875 38.9554Z" fill="#E6EAEF"/>
<path fill-rule="evenodd" clip-rule="evenodd" d="M35 46.0527V31.834L13.125 38.9554L35 46.0527Z" fill="#DCE0E7"/>
<path fill-rule="evenodd" clip-rule="evenodd" d="M30.6054 34.9752C30.1504 34.6777 29.7402 34.3595 29.376 34.0259C28.932 33.6179 28.2396 33.6474 27.8305 34.0926C27.4226 34.5366 27.4521 35.229 27.8973 35.637C28.3446 36.0482 28.8488 36.4398 29.4088 36.8062C29.9141 37.1365 30.5923 36.9943 30.9226 36.489C31.2529 35.9837 31.1107 35.3055 30.6054 34.9752Z" fill="#CAD2D9"/>
<path fill-rule="evenodd" clip-rule="evenodd" d="M27.1969 31.616C26.8721 31.1753 26.5975 30.7323 26.3722 30.2893C26.0988 29.7512 25.4393 29.5368 24.9011 29.8103C24.363 30.0837 24.1486 30.7432 24.4221 31.2813C24.6999 31.826 25.0368 32.3718 25.436 32.9132C25.7936 33.3988 26.4783 33.5028 26.965 33.1451C27.4507 32.7864 27.5546 32.1017 27.1969 31.616Z" fill="#CAD2D9"/>
<path fill-rule="evenodd" clip-rule="evenodd" d="M25.598 27.1526C25.6089 26.7118 25.6734 26.2842 25.7916 25.874C25.9578 25.2943 25.622 24.6873 25.0412 24.5211C24.4616 24.3548 23.8545 24.6906 23.6883 25.2714C23.5209 25.8576 23.4269 26.469 23.4105 27.0979C23.3962 27.7017 23.8731 28.2037 24.4769 28.2179C25.0806 28.2332 25.5827 27.7564 25.598 27.1526Z" fill="#CAD2D9"/>
<path fill-rule="evenodd" clip-rule="evenodd" d="M27.28 23.4992C27.5611 23.2389 27.8761 22.9982 28.2206 22.7806C28.7314 22.4579 28.8845 21.782 28.563 21.2723C28.2403 20.7615 27.5644 20.6084 27.0536 20.93C26.591 21.222 26.171 21.5446 25.7936 21.8946C25.3506 22.3048 25.3244 22.9971 25.7345 23.4401C26.1447 23.8831 26.837 23.9093 27.28 23.4992Z" fill="#CAD2D9"/>
<path fill-rule="evenodd" clip-rule="evenodd" d="M31.348 21.6123C31.8981 21.5106 32.4811 21.445 33.0958 21.4198C33.6995 21.3935 34.1677 20.8828 34.1425 20.2801C34.1173 19.6775 33.6066 19.2082 33.0028 19.2334C32.2809 19.264 31.5963 19.3417 30.9498 19.4609C30.357 19.5714 29.9633 20.1423 30.0738 20.7351C30.1831 21.329 30.7541 21.7217 31.348 21.6123Z" fill="#CAD2D9"/>
<path fill-rule="evenodd" clip-rule="evenodd" d="M37.0485 21.5476C37.9815 21.5585 38.8499 21.5257 39.656 21.4546C40.2576 21.401 40.7027 20.8695 40.6491 20.2679C40.5955 19.6674 40.064 19.2223 39.4624 19.2759C38.7241 19.3404 37.929 19.371 37.0736 19.3601C36.4699 19.3535 35.9744 19.838 35.9679 20.4407C35.9602 21.0445 36.4447 21.541 37.0485 21.5476Z" fill="#CAD2D9"/>
<path fill-rule="evenodd" clip-rule="evenodd" d="M43.2512 20.7844C44.334 20.453 45.2484 20.0286 46.014 19.5419C46.5226 19.2171 46.6735 18.5411 46.3487 18.0314C46.0249 17.5229 45.3479 17.3719 44.8382 17.6968C44.2224 18.0883 43.4841 18.4252 42.6113 18.6921C42.0349 18.8693 41.709 19.4807 41.8862 20.0582C42.0623 20.6357 42.6748 20.9605 43.2512 20.7844Z" fill="#CAD2D9"/>
<path fill-rule="evenodd" clip-rule="evenodd" d="M48.8182 16.4794C49.3344 15.4119 49.5324 14.2831 49.4821 13.1948C49.4536 12.5911 48.9407 12.1251 48.338 12.1536C47.7354 12.182 47.2683 12.6939 47.2968 13.2965C47.3318 14.0359 47.1983 14.8026 46.8483 15.5278C46.5858 16.0714 46.8133 16.7265 47.3569 16.989C47.9005 17.2515 48.5557 17.023 48.8182 16.4794Z" fill="#CAD2D9"/>
<path fill-rule="evenodd" clip-rule="evenodd" d="M48.1215 9.32791C47.3242 8.25056 46.2425 7.50025 45.0634 7.25853C44.4717 7.13822 43.8931 7.51884 43.7717 8.11056C43.6514 8.70228 44.0331 9.28087 44.6237 9.40228C45.304 9.54119 45.9034 10.0082 46.3639 10.6306C46.7237 11.1151 47.4095 11.2168 47.894 10.8581C48.3796 10.4982 48.4814 9.81244 48.1215 9.32791Z" fill="#CAD2D9"/>
<path fill-rule="evenodd" clip-rule="evenodd" d="M33.8328 7.47046C35.0162 0.769051 45.2723 1.20218 39.3015 7.47046H33.8328Z" fill="#E6EAEF"/>
<path fill-rule="evenodd" clip-rule="evenodd" d="M33.8328 9.16797C35.0162 15.8683 45.2723 15.4363 39.3015 9.16797H33.8328Z" fill="#E6EAEF"/>
<path fill-rule="evenodd" clip-rule="evenodd" d="M33.7344 9.42383H41.0581C41.6619 9.42383 42.1519 8.93383 42.1519 8.33008C42.1519 7.72633 41.6619 7.23633 41.0581 7.23633H33.7344C33.1317 7.23633 32.6406 7.72633 32.6406 8.33008C32.6406 8.93383 33.1317 9.42383 33.7344 9.42383Z" fill="#CAD2D9"/>
</svg>
