<svg width="140" height="104" viewBox="0 0 140 104" fill="none" xmlns="http://www.w3.org/2000/svg">
    <path fill-rule="evenodd" clip-rule="evenodd" d="M91.875 38.9561H48.125V59.2036C48.125 60.1693 48.7583 61.0214 49.6836 61.2992C54.0794 62.6171 66.4409 66.3261 69.3711 67.2054C69.7812 67.3279 70.2188 67.3279 70.6289 67.2054C73.5591 66.3261 85.9206 62.6171 90.3164 61.2992C91.2417 61.0214 91.875 60.1693 91.875 59.2036C91.875 54.1329 91.875 38.9561 91.875 38.9561Z" fill="#E6EAEF"/>
    <path fill-rule="evenodd" clip-rule="evenodd" d="M91.8751 38.9561H70.0001C70.0001 38.9561 69.7879 67.2973 70.0001 67.2973C70.2123 67.2973 70.4233 67.2667 70.629 67.2054C73.5591 66.3261 85.9207 62.6171 90.3165 61.2992C91.2418 61.0214 91.8751 60.1693 91.8751 59.2036C91.8751 54.1329 91.8751 38.9561 91.8751 38.9561Z" fill="#DCE0E7"/>
    <path fill-rule="evenodd" clip-rule="evenodd" d="M70 46.0534L48.125 38.9561C48.125 38.9561 44.2893 44.6436 42.5743 47.1854C42.3818 47.4709 42.3347 47.8286 42.4463 48.1534C42.5589 48.4782 42.816 48.7309 43.143 48.8381C47.2982 50.1878 59.5985 54.1843 62.825 55.2322C63.2877 55.3831 63.7952 55.2092 64.0686 54.8056C65.5353 52.6411 70 46.0534 70 46.0534Z" fill="#F4F4F4"/>
    <path fill-rule="evenodd" clip-rule="evenodd" d="M91.875 38.9561L70 46.0534C70 46.0534 74.4647 52.6411 75.9314 54.8056C76.2048 55.2092 76.7123 55.3831 77.175 55.2322C80.4016 54.1843 92.7019 50.1878 96.857 48.8381C97.1841 48.7309 97.4411 48.4782 97.5538 48.1534C97.6653 47.8286 97.6183 47.4709 97.4258 47.1854C95.7108 44.6436 91.875 38.9561 91.875 38.9561Z" fill="#F4F4F4"/>
    <path fill-rule="evenodd" clip-rule="evenodd" d="M64.7052 24.0476C64.4318 23.6462 63.9254 23.4723 63.4627 23.6232C60.2384 24.6699 47.9348 28.6676 43.7796 30.0184C43.4526 30.1245 43.1944 30.3771 43.0829 30.702C42.9713 31.0268 43.0183 31.3856 43.2108 31.6699C44.7902 34.0128 48.1251 38.9565 48.1251 38.9565L70.0001 31.8351C70.0001 31.8351 66.0713 26.0568 64.7052 24.0476Z" fill="#E6EAEF"/>
    <path fill-rule="evenodd" clip-rule="evenodd" d="M96.7892 31.6699C96.9817 31.3856 97.0288 31.0268 96.9172 30.702C96.8056 30.3771 96.5475 30.1245 96.2205 30.0184C92.0653 28.6676 79.7617 24.6699 76.5373 23.6232C76.0747 23.4723 75.5683 23.6462 75.2948 24.0476C73.9288 26.0568 70 31.8351 70 31.8351L91.875 38.9565C91.875 38.9565 95.2098 34.0128 96.7892 31.6699Z" fill="#F4F4F4"/>
    <path fill-rule="evenodd" clip-rule="evenodd" d="M91.875 38.9564L70 31.835L48.125 38.9564L70 46.0537L91.875 38.9564Z" fill="#E6EAEF"/>
    <path fill-rule="evenodd" clip-rule="evenodd" d="M70 46.0537V31.835L48.125 38.9564L70 46.0537Z" fill="#DCE0E7"/>
    <path fill-rule="evenodd" clip-rule="evenodd" d="M65.6054 34.9762C65.1504 34.6787 64.7402 34.3604 64.376 34.0268C63.932 33.6189 63.2396 33.6484 62.8305 34.0936C62.4226 34.5376 62.4521 35.23 62.8973 35.6379C63.3446 36.0492 63.8488 36.4407 64.4088 36.8072C64.9141 37.1375 65.5923 36.9953 65.9226 36.49C66.2529 35.9846 66.1107 35.3065 65.6054 34.9762Z" fill="#CAD2D9"/>
    <path fill-rule="evenodd" clip-rule="evenodd" d="M62.1973 31.616C61.8724 31.1753 61.5979 30.7323 61.3726 30.2893C61.0992 29.7512 60.4396 29.5368 59.9015 29.8103C59.3634 30.0837 59.149 30.7432 59.4224 31.2813C59.7002 31.826 60.0371 32.3718 60.4363 32.9132C60.794 33.3988 61.4787 33.5028 61.9654 33.1451C62.451 32.7864 62.5549 32.1017 62.1973 31.616Z" fill="#CAD2D9"/>
    <path fill-rule="evenodd" clip-rule="evenodd" d="M60.5982 27.1526C60.6091 26.7118 60.6737 26.2842 60.7918 25.874C60.9581 25.2943 60.6223 24.6873 60.0415 24.5211C59.4618 24.3548 58.8548 24.6906 58.6885 25.2714C58.5212 25.8576 58.4271 26.469 58.4107 27.0979C58.3965 27.7017 58.8734 28.2037 59.4771 28.2179C60.0809 28.2332 60.5829 27.7564 60.5982 27.1526Z" fill="#CAD2D9"/>
    <path fill-rule="evenodd" clip-rule="evenodd" d="M62.2804 23.4992C62.5615 23.2389 62.8765 22.9982 63.221 22.7806C63.7318 22.4579 63.8849 21.782 63.5634 21.2723C63.2407 20.7615 62.5648 20.6084 62.054 20.93C61.5913 21.222 61.1713 21.5446 60.794 21.8946C60.351 22.3048 60.3248 22.9971 60.7349 23.4401C61.1451 23.8831 61.8374 23.9093 62.2804 23.4992Z" fill="#CAD2D9"/>
    <path fill-rule="evenodd" clip-rule="evenodd" d="M66.3481 21.6133C66.8982 21.5116 67.4812 21.4459 68.0959 21.4208C68.6997 21.3945 69.1678 20.8837 69.1426 20.2811C69.1175 19.6784 68.6067 19.2092 68.0029 19.2344C67.2811 19.265 66.5964 19.3426 65.95 19.4619C65.3572 19.5723 64.9634 20.1433 65.0739 20.7361C65.1832 21.33 65.7542 21.7226 66.3481 21.6133Z" fill="#CAD2D9"/>
    <path fill-rule="evenodd" clip-rule="evenodd" d="M72.0487 21.5486C72.9817 21.5595 73.8501 21.5267 74.6562 21.4556C75.2578 21.402 75.703 20.8704 75.6494 20.2689C75.5958 19.6684 75.0642 19.2232 74.4626 19.2768C73.7244 19.3414 72.9292 19.372 72.0739 19.3611C71.4701 19.3545 70.9747 19.839 70.9681 20.4417C70.9605 21.0454 71.445 21.542 72.0487 21.5486Z" fill="#CAD2D9"/>
    <path fill-rule="evenodd" clip-rule="evenodd" d="M78.2513 20.7844C79.3341 20.453 80.2485 20.0286 81.0141 19.5419C81.5227 19.2171 81.6736 18.5411 81.3488 18.0314C81.025 17.5229 80.348 17.3719 79.8383 17.6968C79.2225 18.0883 78.4843 18.4252 77.6114 18.6921C77.035 18.8693 76.7091 19.4807 76.8863 20.0582C77.0624 20.6357 77.6749 20.9605 78.2513 20.7844Z" fill="#CAD2D9"/>
    <path fill-rule="evenodd" clip-rule="evenodd" d="M83.8185 16.4813C84.3348 15.4138 84.5328 14.2851 84.4825 13.1968C84.454 12.593 83.941 12.1271 83.3384 12.1555C82.7357 12.184 82.2687 12.6958 82.2971 13.2985C82.3321 14.0379 82.1987 14.8046 81.8487 15.5298C81.5862 16.0733 81.8137 16.7285 82.3573 16.991C82.9009 17.2535 83.556 17.0249 83.8185 16.4813Z" fill="#CAD2D9"/>
    <path fill-rule="evenodd" clip-rule="evenodd" d="M83.1218 9.32888C82.3244 8.25154 81.2427 7.50123 80.0636 7.25951C79.4719 7.13919 78.8933 7.51982 78.7719 8.11154C78.6516 8.70326 79.0333 9.28185 79.6239 9.40326C80.3043 9.54216 80.9036 10.0092 81.3641 10.6315C81.7239 11.1161 82.4097 11.2178 82.8943 10.859C83.3799 10.4992 83.4816 9.81341 83.1218 9.32888Z" fill="#CAD2D9"/>
    <path fill-rule="evenodd" clip-rule="evenodd" d="M68.833 7.47143C70.0164 0.770028 80.2725 1.20315 74.3018 7.47143H68.833Z" fill="#E6EAEF"/>
    <path fill-rule="evenodd" clip-rule="evenodd" d="M68.833 9.16895C70.0164 15.8693 80.2725 15.4372 74.3018 9.16895H68.833Z" fill="#E6EAEF"/>
    <path fill-rule="evenodd" clip-rule="evenodd" d="M68.7346 9.4248H76.0584C76.6621 9.4248 77.1521 8.9348 77.1521 8.33105C77.1521 7.7273 76.6621 7.2373 76.0584 7.2373H68.7346C68.132 7.2373 67.6409 7.7273 67.6409 8.33105C67.6409 8.9348 68.132 9.4248 68.7346 9.4248Z" fill="#CAD2D9"/>
    <path d="M2.618 88.444V90.25C3.052 90.222 3.64 90.194 4.13 90.194C4.998 90.194 7.882 90.194 8.708 90.194C9.184 90.194 9.73 90.222 10.206 90.25V88.444C9.73 88.5 9.184 88.542 8.708 88.542C7.882 88.542 4.998 88.542 4.116 88.542C3.654 88.542 3.066 88.5 2.618 88.444ZM1.008 92.014V93.848C1.386 93.82 1.932 93.806 2.338 93.806C3.22 93.806 10.682 93.806 11.508 93.806C11.9 93.806 12.446 93.82 12.796 93.848V92.014C12.418 92.084 11.802 92.112 11.508 92.112C10.682 92.112 3.22 92.112 2.338 92.112C1.904 92.112 1.414 92.07 1.008 92.014ZM8.162 92.994L6.216 93.008C6.216 94.506 6.034 95.836 5.334 96.886C4.774 97.712 3.78 98.51 2.786 98.902L4.438 100.092C5.684 99.462 6.762 98.37 7.252 97.404C7.84 96.228 8.162 94.828 8.162 92.994ZM11.046 87.478L9.94 87.926C10.318 88.472 10.752 89.298 11.032 89.872L12.152 89.396C11.9 88.878 11.396 87.982 11.046 87.478ZM12.698 86.848L11.592 87.296C11.984 87.828 12.432 88.64 12.726 89.228L13.832 88.752C13.58 88.262 13.062 87.366 12.698 86.848ZM15.274 92.518V94.73C15.806 94.688 16.744 94.646 17.528 94.646C19.18 94.646 23.786 94.646 25.06 94.646C25.648 94.646 26.362 94.716 26.698 94.73V92.518C26.32 92.546 25.704 92.616 25.046 92.616C23.8 92.616 19.18 92.616 17.528 92.616C16.8 92.616 15.792 92.56 15.274 92.518ZM33.992 92.448L32.746 93.722C34.384 94.758 37.044 96.718 38.262 97.866L39.606 96.27C38.304 95.234 35.714 93.442 33.992 92.448ZM40.586 90.068L39.158 89.186C38.836 89.284 38.374 89.354 37.94 89.354H33.95L33.306 90.936H38.038C37.772 92.028 36.904 93.638 35.966 94.744C34.762 96.144 33.096 97.614 30.17 98.524L31.794 99.924C34.468 98.916 36.26 97.348 37.576 95.71C38.836 94.156 39.69 92.364 40.11 91.076C40.236 90.726 40.418 90.334 40.586 90.068ZM35.952 87.912L33.922 87.282C33.796 87.772 33.502 88.416 33.292 88.752C32.578 89.97 31.29 91.888 28.84 93.4L30.338 94.562C32.354 93.176 34.146 91.034 35.084 89.34C35.252 89.046 35.616 88.402 35.952 87.912ZM48.356 88.052L46.284 87.828C46.298 88.878 46.144 90.068 45.878 91.328C45.486 93.092 44.436 96.788 42.77 99.028L44.604 99.756C46.074 97.39 47.194 93.4 47.656 91.426C47.81 90.712 47.978 89.844 48.118 89.214C48.188 88.864 48.272 88.416 48.356 88.052ZM53.186 89.452L51.506 90.166C52.514 91.412 53.508 93.876 53.872 95.43L55.65 94.604C55.216 93.274 54.04 90.67 53.186 89.452ZM42.686 90.922L42.854 92.812C43.274 92.742 44.002 92.644 44.408 92.588C45.178 92.49 47.6 92.182 48.426 92.182C49.308 92.182 49.784 92.35 49.784 93.47C49.784 94.842 49.602 96.55 49.21 97.334C49 97.796 48.636 97.936 48.16 97.936C47.796 97.936 46.998 97.796 46.452 97.642L46.76 99.49C47.236 99.602 47.894 99.686 48.44 99.686C49.49 99.686 50.274 99.378 50.736 98.398C51.324 97.194 51.534 94.926 51.534 93.274C51.534 91.244 50.484 90.586 49 90.586C47.964 90.586 45.304 90.894 44.184 90.922C43.666 90.936 43.19 90.95 42.686 90.922ZM52.934 87.52L51.814 87.968C52.192 88.514 52.626 89.34 52.92 89.914L54.04 89.438C53.774 88.92 53.284 88.024 52.934 87.52ZM54.586 86.876L53.48 87.338C53.858 87.87 54.32 88.682 54.6 89.27L55.72 88.794C55.468 88.304 54.95 87.408 54.586 86.876ZM62.944 87.744L61.124 87.688C61.138 87.94 61.11 88.262 61.082 88.542C60.928 89.928 60.676 91.986 60.676 93.82C60.676 95.878 61.082 97.95 61.502 99.21L63.112 98.734C62.65 97.32 62.244 95.752 62.244 93.54C62.244 91.804 62.482 89.788 62.748 88.486C62.804 88.262 62.86 88.01 62.944 87.744ZM60.438 89.284C59.584 89.284 58.366 89.172 57.862 89.102L57.904 90.712C58.562 90.74 59.654 90.81 60.396 90.81C62.51 90.81 65.45 90.6 67.368 90.25L67.354 88.64C65.212 89.158 63.098 89.284 60.438 89.284ZM66.486 91.342L64.764 90.922C64.75 91.23 64.652 91.832 64.554 92.126C63.994 94.058 63.042 95.304 62.02 96.242C61.166 97.04 60.228 97.502 59.57 97.502C59.108 97.502 58.926 97.264 58.926 96.802C58.926 95.864 59.92 94.52 61.32 93.862C62.006 93.554 63.014 93.19 64.288 93.19C66.178 93.19 67.2 94.198 67.2 95.388C67.2 96.774 66.094 98.132 63.392 98.426L64.33 99.91C67.76 99.378 68.936 97.46 68.936 95.472C68.936 93.288 67.004 91.776 64.386 91.776C63.336 91.776 62.188 91.986 61.264 92.322C59.038 93.134 57.274 95.192 57.274 97.166C57.274 98.594 58.128 99.21 59.15 99.21C60.368 99.21 61.586 98.594 62.496 97.922C63.826 96.942 65.268 95.052 66.066 92.532C66.164 92.238 66.374 91.594 66.486 91.342ZM75.054 87.758L73.136 87.688C73.122 88.066 73.08 88.626 73.024 89.144C72.814 90.6 72.632 92.322 72.632 93.638C72.632 94.576 72.716 95.43 72.8 95.976L74.522 95.85C74.452 95.206 74.438 94.758 74.466 94.366C74.522 92.532 75.978 90.04 77.63 90.04C78.792 90.04 79.52 91.244 79.52 93.4C79.52 96.788 77.336 97.824 74.214 98.3L75.278 99.924C78.988 99.238 81.41 97.362 81.41 93.4C81.41 90.32 79.898 88.402 77.952 88.402C76.384 88.402 75.152 89.592 74.48 90.67C74.564 89.886 74.858 88.444 75.054 87.758ZM92.358 87.688H90.454C90.51 87.954 90.538 88.388 90.538 88.64C90.538 89.438 90.524 91.216 90.524 92.56C90.524 93.918 90.678 96.424 90.678 97.264C90.678 98.076 90.174 98.286 89.432 98.286C88.466 98.286 87.976 97.964 87.976 97.432C87.976 96.942 88.522 96.564 89.502 96.564C91.896 96.564 93.926 97.922 95.256 99.182L96.264 97.614C95.102 96.634 92.806 95.122 89.726 95.122C87.584 95.122 86.282 96.116 86.282 97.53C86.282 99.014 87.458 99.868 89.698 99.868C91.532 99.868 92.442 98.944 92.442 97.74C92.442 96.634 92.218 94.1 92.218 92.56C92.218 91.384 92.232 89.396 92.26 88.682C92.274 88.318 92.316 87.968 92.358 87.688ZM86.548 88.99L86.576 90.6C87.5 90.712 89.124 90.838 90.02 90.838C92.12 90.838 94.346 90.67 95.774 90.474L95.788 88.878C93.744 89.2 91.91 89.298 90.006 89.298C89.152 89.298 87.542 89.158 86.548 88.99ZM86.464 92.014L86.492 93.666C87.416 93.778 88.998 93.848 89.824 93.848C92.484 93.848 94.01 93.764 95.942 93.54L95.956 91.888C94.234 92.112 92.428 92.28 89.838 92.28C89.096 92.28 87.388 92.182 86.464 92.014ZM108.286 88.024H106.396C106.438 88.29 106.494 88.948 106.494 89.312C106.494 90.138 106.494 90.95 106.494 91.678C106.466 92.644 106.438 93.652 106.368 94.184C106.326 94.464 106.2 94.506 105.934 94.506C105.654 94.506 105.066 94.436 104.632 94.338L104.604 95.878C105.08 95.962 106.214 96.088 106.704 96.088C107.418 96.088 107.782 95.906 107.936 95.164C108.076 94.45 108.118 92.938 108.146 91.692C108.174 90.978 108.174 90.18 108.202 89.228C108.216 88.864 108.244 88.248 108.286 88.024ZM102.77 88.444H100.796C100.866 88.934 100.908 89.41 100.908 89.998C100.908 90.838 100.894 95.094 100.922 96.298C100.978 98.72 101.426 99.49 105.038 99.49C106.382 99.49 108.09 99.364 109.028 99.266L109.098 97.348C108.062 97.544 106.284 97.712 104.912 97.712C102.812 97.712 102.7 97.404 102.658 96.018C102.63 94.87 102.686 91.174 102.686 89.9C102.686 89.298 102.714 88.906 102.77 88.444ZM98.0942 91.608L98.2762 93.386C98.6542 93.33 99.5222 93.204 99.9562 93.148C101.58 92.966 107.026 92.378 109.21 92.308C109.574 92.308 110.316 92.28 110.568 92.294V90.586C110.148 90.614 109.602 90.656 109.224 90.684C106.522 90.852 101.258 91.37 99.8442 91.496C99.1302 91.58 98.4862 91.608 98.0942 91.608ZM119.654 88.612L117.666 87.814C117.414 88.402 117.148 88.864 116.98 89.228C116.224 90.572 113.354 96.284 112.332 99.084L114.306 99.756C114.516 99.014 114.992 97.446 115.37 96.634C115.86 95.5 116.658 94.52 117.61 94.52C118.114 94.52 118.38 94.814 118.422 95.304C118.464 95.878 118.464 97.012 118.506 97.768C118.576 98.776 119.29 99.714 120.844 99.714C123 99.714 124.288 98.118 125.03 95.71L123.504 94.478C123.112 96.214 122.356 97.796 121.138 97.796C120.676 97.796 120.298 97.572 120.242 97.026C120.172 96.438 120.2 95.318 120.172 94.702C120.116 93.526 119.486 92.868 118.436 92.868C117.904 92.868 117.358 92.994 116.84 93.302C117.526 92.056 118.506 90.264 119.206 89.27C119.36 89.032 119.5 88.794 119.654 88.612ZM128.278 95.542C127.032 95.542 126.01 96.55 126.01 97.796C126.01 99.056 127.032 100.064 128.278 100.064C129.538 100.064 130.546 99.056 130.546 97.796C130.546 96.55 129.538 95.542 128.278 95.542ZM128.278 99.056C127.592 99.056 127.018 98.496 127.018 97.796C127.018 97.11 127.592 96.55 128.278 96.55C128.978 96.55 129.538 97.11 129.538 97.796C129.538 98.496 128.978 99.056 128.278 99.056Z" fill="#D7D7D7"/>
</svg>
