<svg width="20" height="20" viewBox="0 0 20 20" fill="none" xmlns="http://www.w3.org/2000/svg">
    <path fill-rule="evenodd" clip-rule="evenodd" d="M0.50891 3.33627C-0.645687 2.0356 0.291396 0 2.04476 0H17.9552C19.7086 0 20.6457 2.03559 19.4911 3.33627L14.0816 9.43017V15.9742C14.0816 16.7361 13.6448 17.4327 12.9535 17.7734L8.87188 19.785C7.51495 20.4538 5.91842 19.4812 5.91842 17.9858L5.91842 9.43017L0.50891 3.33627ZM17.9552 2.01161H2.04476L7.45427 8.10552C7.77979 8.47222 7.95921 8.94291 7.95921 9.43017V17.9858L12.0408 15.9742V9.43017C12.0408 8.94291 12.2202 8.47222 12.5457 8.10552L17.9552 2.01161Z" fill="#D7D7D7"/>
</svg>
