<svg width="90" height="90" viewBox="0 0 90 90" fill="none" xmlns="http://www.w3.org/2000/svg">
<rect width="90" height="90" rx="8" fill="#E5E7EC"/>
<path d="M45 41C50.5228 41 55 36.5228 55 31C55 25.4772 50.5228 21 45 21C39.4772 21 35 25.4772 35 31C35 36.5228 39.4772 41 45 41Z" fill="#F6F7F8"/>
<path d="M45 68C41.483 67.9999 38.0606 66.8295 35.2444 64.664C32.4281 62.4985 30.3694 59.4541 29.3759 55.986C27.6615 50.0012 32.026 44 38.0958 44H51.9042C57.974 44 62.3385 49.9988 60.6241 55.9836C59.631 59.4522 57.5725 62.4971 54.7562 64.6631C51.9399 66.8291 48.5172 67.9997 45 68Z" fill="white"/>
</svg>
