<svg width="24" height="24" viewBox="0 0 24 24" fill="none" xmlns="http://www.w3.org/2000/svg">
<path fill-rule="evenodd" clip-rule="evenodd" d="M15 8C15 11.3137 12.3137 14 9 14C5.68629 14 3 11.3137 3 8C3 4.68629 5.68629 2 9 2C12.3137 2 15 4.68629 15 8ZM9 12C11.2091 12 13 10.2091 13 8C13 5.79086 11.2091 4 9 4C6.79086 4 5 5.79086 5 8C5 10.2091 6.79086 12 9 12ZM4.01675 18.4421C4.00004 18.4795 4 18.4971 4 18.5V18.5073V18.5146V18.522V18.5293V18.5366V18.5439V18.5513V18.5586V18.5659V18.5732V18.5806V18.5879V18.5952V18.6025V18.6098V18.6171V18.6245V18.6318V18.6391V18.6464V18.6537V18.661V18.6683V18.6757V18.683V18.6903V18.6976V18.7049V18.7122V18.7195V18.7268V18.7341V18.7414V18.7487V18.7559V18.7632V18.7705V18.7778V18.7851V18.7924V18.7997V18.8069V18.8142V18.8215V18.8287V18.836V18.8433V18.8505V18.8578V18.865V18.8723V18.8796V18.8868V18.894V18.9013V18.9085V18.9158V18.923V18.9302V18.9374V18.9447V18.9519V18.9591V18.9663V18.9735V18.9807V18.9879V18.9951V19.0023V19.0095V19.0167V19.0239V19.031V19.0382V19.0454V19.0526V19.0597V19.0669V19.074V19.0812V19.0883V19.0955V19.1026V19.1097V19.1168V19.124V19.1311V19.1382V19.1453V19.1524V19.1595V19.1666V19.1737V19.1807V19.1878V19.1949V19.202V19.209V19.2161V19.2231V19.2302V19.2372V19.2442V19.2512V19.2583V19.2653V19.2723V19.2793V19.2863V19.2933V19.3003V19.3072V19.3142V19.3212V19.3281V19.3351V19.342V19.349V19.3559V19.3628V19.3697V19.3766V19.3835V19.3904V19.3973V19.4042V19.4111V19.418V19.4248V19.4317V19.4385V19.4454V19.4522V19.459V19.4659V19.4727V19.4795V19.4863V19.4931V19.4998V19.5066V19.5134V19.5201V19.5269V19.5336V19.5404V19.5471V19.5538V19.5605V19.5672V19.5739V19.5806V19.5872V19.5939V19.6006V19.6072V19.6139V19.6205V19.6271V19.6337V19.6403V19.6469V19.6535V19.6601V19.6667V19.6732V19.6798V19.6863V19.6928V19.6994V19.7059V19.7124V19.7189V19.7254V19.7318V19.7383V19.7447V19.7512V19.7576V19.764V19.7705V19.7769V19.7833V19.7896V19.796V19.8024V19.8087V19.8151V19.8214V19.8277V19.834V19.8403V19.8466V19.8529V19.8592V19.8654V19.8717V19.8779V19.8841V19.8903V19.8965V19.9027V19.9089V19.9151V19.9212V19.9274V19.9335V19.9396V19.9457V19.9518V19.9579V19.964V19.9701V19.9761V19.9821V19.9882V19.9942V20.0002V20.0062V20.0122V20.0181V20.0241V20.03V20.0359V20.0419V20.0478V20.0537V20.0595V20.0654V20.0713V20.0771V20.0829V20.0887V20.0945V20.1003V20.1061V20.1119V20.1176V20.1233V20.1291V20.1348V20.1405V20.1462V20.1518V20.1575V20.1631V20.1687V20.1744V20.18V20.1855V20.1911V20.1967V20.2022V20.2077V20.2132V20.2188V20.2242V20.2297V20.2352V20.2406V20.246V20.2514V20.2568V20.2622V20.2676V20.273V20.2783V20.2836V20.2889V20.2942V20.2995V20.3048V20.31V20.3153V20.3205V20.3257V20.3309V20.336V20.3412V20.3463V20.3515V20.3566V20.3617V20.3667V20.3718V20.3769V20.3819V20.3869V20.3919V20.3969V20.4018V20.4068V20.4117V20.4167V20.4216V20.4264V20.4313V20.4362V20.441V20.4458V20.4506V20.4554V20.4602V20.4649V20.4696V20.4744V20.4791V20.4837V20.4884V20.4931V20.4977V20.5023V20.5069V20.5115V20.516V20.5206V20.5251V20.5296V20.5341V20.5386V20.543V20.5475V20.5519V20.5563V20.5607V20.565V20.5694V20.5737V20.578V20.5823V20.5866V20.5908V20.5951V20.5993V20.6035V20.6077V20.6118V20.616V20.6201V20.6242V20.6283V20.6323V20.6364V20.6404V20.6444V20.6484V20.6524V20.6563V20.6603V20.6642V20.6681V20.6719V20.6758V20.6796V20.6834V20.6872V20.691V20.6948V20.6985V20.7022V20.7059V20.7096V20.7132V20.7169V20.7205V20.7241V20.7276V20.7312V20.7347V20.7382V20.7417V20.7452V20.7486V20.752V20.7555V20.7588V20.7622V20.7655V20.7689V20.7722V20.7754V20.7787V20.7819V20.7852V20.7883V20.7915V20.7947V20.7978V20.8009V20.804V20.8071V20.8101V20.8131V20.8161V20.8191V20.822V20.825V20.8279V20.8308V20.8336V20.8365V20.8393V20.8421V20.8449V20.8476V20.8504V20.8531V20.8558V20.8584V20.8611V20.8637V20.8663V20.8688V20.8714V20.8739V20.8764V20.8789V20.8813V20.8838V20.8862V20.8886V20.8909V20.8933V20.8956V20.8979V20.9001V20.9024V20.9046V20.9068V20.9089V20.9111V20.9132V20.9153V20.9174V20.9194V20.9215V20.9235V20.9254V20.9274V20.9293V20.9312V20.9331V20.935V20.9368V20.9386V20.9404V20.9421V20.9438V20.9456V20.9472V20.9489V20.9505V20.9521V20.9537V20.9552V20.9568V20.9583V20.9598V20.9612V20.9626V20.964V20.9654V20.9667V20.9681V20.9694V20.9706V20.9719V20.9731V20.9743V20.9755V20.9766V20.9777V20.9788V20.9799V20.9809V20.9819V20.9829V20.9838V20.9848V20.9857V20.9865V20.9874V20.9882V20.989V20.9898V20.9905V20.9912V20.9919V20.9925V20.9932V20.9938V20.9944V20.9949V20.9954V20.9959V20.9964V20.9968V20.9972V20.9976V20.998V20.9983V20.9986V20.9988V20.9991V20.9993V20.9995V20.9996V20.9998V20.9999V20.9999V21C4 21.5523 3.55228 22 3 22C2.44772 22 2 21.5523 2 21V20.9999V20.9999V20.9998V20.9996V20.9995V20.9993V20.9991V20.9988V20.9986V20.9983V20.998V20.9976V20.9972V20.9968V20.9964V20.9959V20.9954V20.9949V20.9944V20.9938V20.9932V20.9925V20.9919V20.9912V20.9905V20.9898V20.989V20.9882V20.9874V20.9865V20.9857V20.9848V20.9838V20.9829V20.9819V20.9809V20.9799V20.9788V20.9777V20.9766V20.9755V20.9743V20.9731V20.9719V20.9706V20.9694V20.9681V20.9667V20.9654V20.964V20.9626V20.9612V20.9598V20.9583V20.9568V20.9552V20.9537V20.9521V20.9505V20.9489V20.9472V20.9456V20.9438V20.9421V20.9404V20.9386V20.9368V20.935V20.9331V20.9312V20.9293V20.9274V20.9254V20.9235V20.9215V20.9194V20.9174V20.9153V20.9132V20.9111V20.9089V20.9068V20.9046V20.9024V20.9001V20.8979V20.8956V20.8933V20.8909V20.8886V20.8862V20.8838V20.8813V20.8789V20.8764V20.8739V20.8714V20.8688V20.8663V20.8637V20.8611V20.8584V20.8558V20.8531V20.8504V20.8476V20.8449V20.8421V20.8393V20.8365V20.8336V20.8308V20.8279V20.825V20.822V20.8191V20.8161V20.8131V20.8101V20.8071V20.804V20.8009V20.7978V20.7947V20.7915V20.7883V20.7852V20.7819V20.7787V20.7754V20.7722V20.7689V20.7655V20.7622V20.7588V20.7555V20.752V20.7486V20.7452V20.7417V20.7382V20.7347V20.7312V20.7276V20.7241V20.7205V20.7169V20.7132V20.7096V20.7059V20.7022V20.6985V20.6948V20.691V20.6872V20.6834V20.6796V20.6758V20.6719V20.6681V20.6642V20.6603V20.6563V20.6524V20.6484V20.6444V20.6404V20.6364V20.6323V20.6283V20.6242V20.6201V20.616V20.6118V20.6077V20.6035V20.5993V20.5951V20.5908V20.5866V20.5823V20.578V20.5737V20.5694V20.565V20.5607V20.5563V20.5519V20.5475V20.543V20.5386V20.5341V20.5296V20.5251V20.5206V20.516V20.5115V20.5069V20.5023V20.4977V20.4931V20.4884V20.4837V20.4791V20.4744V20.4696V20.4649V20.4602V20.4554V20.4506V20.4458V20.441V20.4362V20.4313V20.4264V20.4216V20.4167V20.4117V20.4068V20.4018V20.3969V20.3919V20.3869V20.3819V20.3769V20.3718V20.3667V20.3617V20.3566V20.3515V20.3463V20.3412V20.336V20.3309V20.3257V20.3205V20.3153V20.31V20.3048V20.2995V20.2942V20.2889V20.2836V20.2783V20.273V20.2676V20.2622V20.2568V20.2514V20.246V20.2406V20.2352V20.2297V20.2242V20.2188V20.2132V20.2077V20.2022V20.1967V20.1911V20.1855V20.18V20.1744V20.1687V20.1631V20.1575V20.1518V20.1462V20.1405V20.1348V20.1291V20.1233V20.1176V20.1119V20.1061V20.1003V20.0945V20.0887V20.0829V20.0771V20.0713V20.0654V20.0595V20.0537V20.0478V20.0419V20.0359V20.03V20.0241V20.0181V20.0122V20.0062V20.0002V19.9942V19.9882V19.9821V19.9761V19.9701V19.964V19.9579V19.9518V19.9457V19.9396V19.9335V19.9274V19.9212V19.9151V19.9089V19.9027V19.8965V19.8903V19.8841V19.8779V19.8717V19.8654V19.8592V19.8529V19.8466V19.8403V19.834V19.8277V19.8214V19.8151V19.8087V19.8024V19.796V19.7896V19.7833V19.7769V19.7705V19.764V19.7576V19.7512V19.7447V19.7383V19.7318V19.7254V19.7189V19.7124V19.7059V19.6994V19.6928V19.6863V19.6798V19.6732V19.6667V19.6601V19.6535V19.6469V19.6403V19.6337V19.6271V19.6205V19.6139V19.6072V19.6006V19.5939V19.5872V19.5806V19.5739V19.5672V19.5605V19.5538V19.5471V19.5404V19.5336V19.5269V19.5201V19.5134V19.5066V19.4998V19.4931V19.4863V19.4795V19.4727V19.4659V19.459V19.4522V19.4454V19.4385V19.4317V19.4248V19.418V19.4111V19.4042V19.3973V19.3904V19.3835V19.3766V19.3697V19.3628V19.3559V19.349V19.342V19.3351V19.3281V19.3212V19.3142V19.3072V19.3003V19.2933V19.2863V19.2793V19.2723V19.2653V19.2583V19.2512V19.2442V19.2372V19.2302V19.2231V19.2161V19.209V19.202V19.1949V19.1878V19.1807V19.1737V19.1666V19.1595V19.1524V19.1453V19.1382V19.1311V19.124V19.1168V19.1097V19.1026V19.0955V19.0883V19.0812V19.074V19.0669V19.0597V19.0526V19.0454V19.0382V19.031V19.0239V19.0167V19.0095V19.0023V18.9951V18.9879V18.9807V18.9735V18.9663V18.9591V18.9519V18.9447V18.9374V18.9302V18.923V18.9158V18.9085V18.9013V18.894V18.8868V18.8796V18.8723V18.865V18.8578V18.8505V18.8433V18.836V18.8287V18.8215V18.8142V18.8069V18.7997V18.7924V18.7851V18.7778V18.7705V18.7632V18.7559V18.7487V18.7414V18.7341V18.7268V18.7195V18.7122V18.7049V18.6976V18.6903V18.683V18.6757V18.6683V18.661V18.6537V18.6464V18.6391V18.6318V18.6245V18.6171V18.6098V18.6025V18.5952V18.5879V18.5806V18.5732V18.5659V18.5586V18.5513V18.5439V18.5366V18.5293V18.522V18.5146V18.5073V18.5C2 17.2483 3.07086 16.3749 4.17959 15.8709C5.37562 15.3272 7.02593 15 9.00001 15C10.9741 15 12.6244 15.3272 13.8204 15.8709C14.9291 16.3749 16 17.2483 16 18.5V20.4531L16 20.873V20.9695V20.9925V20.9981V20.9995V20.9999V21V21C16 21.5523 15.5523 22 15 22C14.4477 22 14 21.5523 14 21V21V20.9999V20.9995V20.9982V20.9925V20.9695V20.873V20.4531L14 18.5C14 18.4971 14 18.4795 13.9832 18.4421C13.9655 18.4025 13.9283 18.3399 13.8539 18.259C13.701 18.0927 13.4267 17.8889 12.9927 17.6916C12.1265 17.2978 10.7768 17 9.00001 17C7.22322 17 5.87352 17.2978 5.00727 17.6916C4.57327 17.8889 4.29899 18.0927 4.14605 18.259C4.07168 18.3399 4.03448 18.4025 4.01675 18.4421ZM18.9984 16.9967C18.4461 16.9967 17.9984 16.549 17.9984 15.9967V14.9984H17C16.4477 14.9984 16 14.5507 16 13.9984C16 13.4461 16.4477 12.9984 17 12.9984H17.9984V12C17.9984 11.4477 18.4461 11 18.9984 11C19.5506 11 19.9984 11.4477 19.9984 12V12.9984H20.9967C21.549 12.9984 21.9967 13.4461 21.9967 13.9984C21.9967 14.5507 21.549 14.9984 20.9967 14.9984H19.9984V15.9967C19.9984 16.549 19.5506 16.9967 18.9984 16.9967Z" fill="#D7D7D7"/>
</svg>
