<svg width="20" height="20" viewBox="0 0 20 20" fill="none" xmlns="http://www.w3.org/2000/svg">
<path fill-rule="evenodd" clip-rule="evenodd" d="M7.2223 1.66602C6.19955 1.66602 5.37045 2.45148 5.37045 3.4204V5.17478H4.44453H2.59267C2.0813 5.17478 1.66675 5.56752 1.66675 6.05198C1.66675 6.53644 2.0813 6.92917 2.59267 6.92917H3.52972L3.65304 16.5995C3.66529 17.5601 4.49073 18.3327 5.50476 18.3327H14.6297C15.6525 18.3327 16.4816 17.5472 16.4816 16.5783V6.92917H17.4075C17.9189 6.92917 18.3334 6.53644 18.3334 6.05198C18.3334 5.56752 17.9189 5.17478 17.4075 5.17478H15.5556H14.6297V3.4204C14.6297 2.45148 13.8006 1.66602 12.7779 1.66602H7.2223ZM12.7779 5.17478V3.4204H7.2223V5.17478H12.7779ZM7.2223 6.92917H5.38171L5.50476 16.5783L14.6297 16.5783V6.92917H12.7779H7.2223ZM9.07416 8.68355C9.07416 8.19909 8.6596 7.80636 8.14823 7.80636C7.63686 7.80636 7.2223 8.19909 7.2223 8.68355V13.9467C7.2223 14.4312 7.63686 14.8239 8.14823 14.8239C8.6596 14.8239 9.07416 14.4312 9.07416 13.9467V8.68355ZM11.8519 7.80636C12.3633 7.80636 12.7779 8.19909 12.7779 8.68355V13.9467C12.7779 14.4312 12.3633 14.8239 11.8519 14.8239C11.3406 14.8239 10.926 14.4312 10.926 13.9467V8.68355C10.926 8.19909 11.3406 7.80636 11.8519 7.80636Z" fill="#13B67B"/>
</svg>
