<svg width="24" height="24" viewBox="0 0 24 24" fill="none" xmlns="http://www.w3.org/2000/svg">
<path fill-rule="evenodd" clip-rule="evenodd" d="M12 4C7.58172 4 4 7.58172 4 12C4 16.4183 7.58172 20 12 20C16.4183 20 20 16.4183 20 12C20 7.58172 16.4183 4 12 4ZM12 6.49969C12.5523 6.49969 13 6.94741 13 7.49969V13.4678C13 14.02 12.5523 14.4678 12 14.4678C11.4477 14.4678 11 14.02 11 13.4678V7.49969C11 6.94741 11.4477 6.49969 12 6.49969ZM13 16.501C13 17.0529 12.5523 17.5003 12 17.5003C11.4477 17.5003 11 17.0529 11 16.501C11 15.9491 11.4477 15.5017 12 15.5017C12.5523 15.5017 13 15.9491 13 16.501Z" fill="#FF3030"/>
<path fill-rule="evenodd" clip-rule="evenodd" d="M4 12C4 7.58172 7.58172 4 12 4C16.4183 4 20 7.58172 20 12C20 16.4183 16.4183 20 12 20C7.58172 20 4 16.4183 4 12ZM12 2C6.47715 2 2 6.47715 2 12C2 17.5228 6.47715 22 12 22C17.5228 22 22 17.5228 22 12C22 6.47715 17.5228 2 12 2Z" fill="#FF3030"/>
</svg>
