<svg width="24" height="24" viewBox="0 0 24 24" fill="none" xmlns="http://www.w3.org/2000/svg">
<g clip-path="url(#clip0_1085_5361)">
<path d="M21.3796 4.61719C21.1125 4.23745 20.7891 3.88589 20.4516 3.54844C20.1141 3.21098 19.7625 2.88745 19.3828 2.62027C17.2875 0.946875 14.7141 0 12 0C8.80777 0 5.81245 1.28437 3.54844 3.54844C1.28442 5.8125 0 8.80777 0 12C0 14.7281 0.946875 17.3015 2.62036 19.3969C2.90161 19.7624 3.21094 20.114 3.54844 20.4516C3.88594 20.7891 4.2375 21.0984 4.60312 21.3796C6.69839 23.0531 9.27188 24 12 24C15.1922 24 18.1875 22.7156 20.4516 20.4516C22.7156 18.1875 24 15.1921 24 12C24 9.28594 23.0531 6.7125 21.3796 4.61719ZM2.85938 12C2.85938 9.55313 3.81562 7.26094 5.5313 5.5312C7.26094 3.81563 9.55313 2.85938 12 2.85938C13.9688 2.85938 15.839 3.47813 17.386 4.61719L4.63125 17.3859C3.47813 15.839 2.85938 13.9687 2.85938 12ZM18.4687 18.4687C16.7391 20.1844 14.4469 21.1406 12 21.1406C10.0312 21.1406 8.16098 20.5219 6.61402 19.3688L19.3828 6.61406C20.5219 8.16089 21.1406 10.0312 21.1406 12C21.1406 14.4469 20.1844 16.7391 18.4687 18.4687Z" fill="#FD003A"/>
<path d="M4.60352 21.38C6.69878 23.0535 9.27227 24.0004 12.0004 24.0004C15.1926 24.0004 18.1879 22.716 20.452 20.452C22.716 18.1878 24.0004 15.1925 24.0004 12.0004C24.0004 9.28633 23.0535 6.71289 21.38 4.61758C21.1128 4.23784 20.7895 3.88628 20.452 3.54883L3.54883 20.452C3.88628 20.7895 4.23784 21.0988 4.60352 21.38ZM19.3832 6.61441C20.5223 8.16128 21.141 10.0316 21.141 12.0004C21.141 14.4473 20.1848 16.7395 18.4691 18.4691C16.7395 20.1848 14.4473 21.141 12.0004 21.141C10.0316 21.141 8.16138 20.5223 6.61441 19.3691L19.3832 6.61441Z" fill="#E50027"/>
</g>
<defs>
<clipPath id="clip0_1085_5361">
<rect width="24" height="24" fill="white"/>
</clipPath>
</defs>
</svg>
