<svg width="24" height="24" viewBox="0 0 24 24" fill="none" xmlns="http://www.w3.org/2000/svg">
<path fill-rule="evenodd" clip-rule="evenodd" d="M7.7858 5.90346C8.91857 4.6736 10.4365 4 12 4C13.5635 4 15.0814 4.6736 16.2142 5.90346C17.3495 7.13609 18 8.82424 18 10.6C18 11.2405 17.7794 12.0562 17.3528 13.0031C16.9323 13.9367 16.3441 14.9272 15.6862 15.8975C14.3911 17.8071 12.879 19.5602 12 20.5315C11.121 19.5602 9.60887 17.8071 8.31385 15.8975C7.65587 14.9272 7.06774 13.9367 6.64718 13.0031C6.22064 12.0562 6 11.2405 6 10.6C6 8.82424 6.65049 7.13609 7.7858 5.90346ZM12 2C9.85049 2 7.80745 2.92782 6.31471 4.54851C4.82451 6.16644 4 8.34446 4 10.6C4 11.6476 4.34554 12.7631 4.82365 13.8245C5.30774 14.8991 5.96271 15.9939 6.65858 17.02C8.05047 19.0725 9.66121 20.9305 10.5608 21.9217C11.3364 22.7763 12.6636 22.7763 13.4392 21.9217C14.3388 20.9304 15.9495 19.0725 17.3414 17.02C18.0373 15.9939 18.6923 14.8991 19.1764 13.8245C19.6545 12.7631 20 11.6476 20 10.6C20 8.34446 19.1755 6.16644 17.6853 4.54851C16.1926 2.92782 14.1495 2 12 2ZM11 11C11 10.4477 11.4477 10 12 10C12.5523 10 13 10.4477 13 11C13 11.5523 12.5523 12 12 12C11.4477 12 11 11.5523 11 11ZM12 8C10.3431 8 9 9.34315 9 11C9 12.6569 10.3431 14 12 14C13.6569 14 15 12.6569 15 11C15 9.34315 13.6569 8 12 8Z" fill="#13B67B"/>
</svg>
