<svg width="20" height="20" viewBox="0 0 20 20" fill="none" xmlns="http://www.w3.org/2000/svg">
<path fill-rule="evenodd" clip-rule="evenodd" d="M3.33341 9.99935C3.33341 6.31745 6.31818 3.33268 10.0001 3.33268C13.682 3.33268 16.6667 6.31745 16.6667 9.99935C16.6667 13.6812 13.682 16.666 10.0001 16.666C6.31818 16.666 3.33341 13.6812 3.33341 9.99935ZM10.0001 1.66602C5.39771 1.66602 1.66675 5.39698 1.66675 9.99935C1.66675 14.6017 5.39771 18.3327 10.0001 18.3327C14.6025 18.3327 18.3334 14.6017 18.3334 9.99935C18.3334 5.39698 14.6025 1.66602 10.0001 1.66602ZM12.9464 12.9456C12.6209 13.2711 12.0933 13.2711 11.7679 12.9456L10.0001 11.1779L8.23233 12.9456C7.9069 13.2711 7.37926 13.2711 7.05382 12.9456C6.72839 12.6202 6.72839 12.0926 7.05382 11.7671L8.82159 9.99935L7.05382 8.23158C6.72838 7.90615 6.72839 7.37851 7.05382 7.05307C7.37926 6.72763 7.9069 6.72763 8.23233 7.05307L10.0001 8.82084L11.7679 7.05307C12.0933 6.72763 12.6209 6.72763 12.9464 7.05307C13.2718 7.37851 13.2718 7.90615 12.9464 8.23158L11.1786 9.99935L12.9464 11.7671C13.2718 12.0926 13.2718 12.6202 12.9464 12.9456Z" fill="#13B67B"/>
</svg>
