<svg width="24" height="24" viewBox="0 0 24 24" fill="none" xmlns="http://www.w3.org/2000/svg">
<path fill-rule="evenodd" clip-rule="evenodd" d="M13.2956 2.47634C12.5486 1.84122 11.4514 1.84122 10.7044 2.47634L3.70445 8.42838C3.25754 8.80837 3 9.36542 3 9.95204V20.0013C3 21.1059 3.89543 22.0013 5 22.0013H19C20.1046 22.0013 21 21.1059 21 20.0013V9.95204C21 9.36542 20.7425 8.80837 20.2956 8.42838L13.2956 2.47634ZM12 4L19 9.95204V20.0013H15.0029V16.218C15.0029 15.1134 14.1075 14.218 13.0029 14.218H11C9.89543 14.218 9 15.1134 9 16.218V20.0013H5V9.95204L12 4ZM11 20.0013H13.0029V16.218L11 16.218V20.0013Z" fill="#D7D7D7"/>
</svg>
