<svg width="20" height="20" viewBox="0 0 20 20" fill="none" xmlns="http://www.w3.org/2000/svg">
<path fill-rule="evenodd" clip-rule="evenodd" d="M16.676 2.15445C16.0758 1.55394 15.1205 1.50065 14.4573 2.03069L4.94172 9.63607C4.7573 9.78347 4.60627 9.96838 4.49864 10.1786L3.28221 12.554C2.54422 13.9951 4.08519 15.5369 5.52551 14.7985L7.98435 13.538C8.08358 13.4871 8.17745 13.4264 8.26456 13.3568L17.7089 5.80836C18.4854 5.18773 18.5499 4.0294 17.8472 3.32627L16.676 2.15445ZM15.4975 3.33362L16.6687 4.50543L7.22435 12.0539L4.76551 13.3144L5.98193 10.939L15.4975 3.33362ZM2.50008 16.6651C2.03984 16.6651 1.66675 17.0384 1.66675 17.4989C1.66675 17.9594 2.03984 18.3327 2.50008 18.3327H17.5001C17.9603 18.3327 18.3334 17.9594 18.3334 17.4989C18.3334 17.0384 17.9603 16.6651 17.5001 16.6651H2.50008Z" fill="#D7D7D7"/>
</svg>
