<svg width="24" height="24" viewBox="0 0 24 24" fill="none" xmlns="http://www.w3.org/2000/svg">
<path fill-rule="evenodd" clip-rule="evenodd" d="M3.97499 2C2.96384 2 2.04857 2.77538 2.01017 3.86772C1.93578 5.9835 2.26007 8.61697 3.29729 11.2218C4.79497 14.983 7.78186 18.6804 13.1404 20.62C15.0868 21.3245 17.3312 21.7914 19.9098 21.9516C21.0701 22.0238 22 21.0886 22 19.971V17.26C22 16.3617 21.401 15.5735 20.5354 15.333L17.8524 14.5875C17.0834 14.3739 16.2609 14.6379 15.76 15.2593L13.1597 18.4847C9.15314 16.8464 6.78436 14.0866 5.45958 11.1933L8.88881 8.70926C9.5542 8.22727 9.85711 7.38737 9.65256 6.59162L8.85834 3.50206C8.63108 2.61801 7.83411 2 6.92132 2H3.97499ZM20 19.9534C18.1999 19.8393 16.5985 19.5668 15.1753 19.1711L17.317 16.5145L20 17.26V19.9534ZM7.71553 7.08956L4.72492 9.2559C4.14923 7.37473 3.95977 5.5303 4.00689 4H6.92132L7.71553 7.08956ZM14.7235 2.89298C14.7841 2.34404 15.2783 1.94818 15.8273 2.0088L15.7175 3.00276C15.7724 2.50557 15.7998 2.25707 15.8134 2.13288C15.8269 2.01021 15.8271 2.0088 15.8272 2.0088L15.8273 2.0088L15.83 2.00911L15.8336 2.00952L15.8433 2.01067L15.8724 2.01432C15.8961 2.0174 15.9281 2.02182 15.9677 2.02784C16.0469 2.03988 16.1569 2.0584 16.2918 2.08562C16.5607 2.13989 16.9327 2.2296 17.3583 2.3734C18.1993 2.65749 19.3061 3.17163 20.2274 4.09295C21.1564 5.02195 21.6823 6.1916 21.9759 7.0762C22.1253 7.52639 22.2211 7.92279 22.28 8.20913C22.3095 8.35273 22.33 8.46982 22.3434 8.55356C22.3501 8.59547 22.3551 8.62912 22.3586 8.65366L22.3626 8.68359L22.3639 8.69325L22.3643 8.69673L22.3645 8.69812C22.3645 8.69841 22.3646 8.69929 21.3721 8.8211L22.3646 8.69929C22.4319 9.24746 22.0421 9.74638 21.4939 9.81365C20.9461 9.88088 20.4475 9.4916 20.3797 8.94401L20.3781 8.93224C20.3763 8.91981 20.3732 8.89882 20.3686 8.87008C20.3594 8.81255 20.3441 8.72436 20.321 8.61195C20.2746 8.38627 20.1977 8.06772 20.0777 7.70619C19.8325 6.96734 19.4325 6.12647 18.8132 5.50717C18.1862 4.88019 17.3916 4.49568 16.7182 4.2682C16.3867 4.1562 16.0983 4.08689 15.8961 4.0461C15.7954 4.02577 15.7172 4.01275 15.6671 4.00512C15.642 4.00131 15.6241 3.99887 15.6139 3.99754L15.6048 3.99639C15.0573 3.93432 14.663 3.44095 14.7235 2.89298ZM12.9455 5.55083C12.9864 5.00006 13.4661 4.58672 14.0168 4.62762L13.9428 5.62488C14.0168 4.62762 14.0165 4.6276 14.0168 4.62762L14.0194 4.62781L14.0225 4.62806L14.0307 4.62873L14.0543 4.63081C14.0731 4.63257 14.0981 4.63508 14.1288 4.63857C14.1899 4.64553 14.274 4.65641 14.3762 4.67292C14.5797 4.70579 14.8604 4.76178 15.1793 4.8557C15.801 5.03878 16.6498 5.38974 17.3309 6.0708C18.0307 6.77057 18.3542 7.65983 18.5097 8.30259C18.5898 8.6337 18.6315 8.92566 18.6535 9.13696C18.6646 9.24318 18.6708 9.33055 18.6742 9.39413C18.676 9.42596 18.6771 9.45195 18.6777 9.47149L18.6784 9.49593L18.6786 9.50442L18.6787 9.5077L18.6787 9.5091C18.6787 9.5094 18.6787 9.51033 17.7191 9.52407L18.6787 9.51034C18.6866 10.0626 18.2453 10.5166 17.6931 10.5245C17.1423 10.5324 16.6891 10.0934 16.679 9.54311L16.6789 9.53874C16.6786 9.53264 16.6782 9.52075 16.6772 9.50364C16.6754 9.46934 16.6716 9.41457 16.6642 9.34379C16.6494 9.20109 16.6206 8.99958 16.5658 8.77282C16.4514 8.29983 16.2474 7.81572 15.9167 7.48502C15.5673 7.13561 15.0756 6.91005 14.6144 6.77424C14.3918 6.70871 14.1955 6.66965 14.0573 6.64734C13.9887 6.63625 13.9358 6.62951 13.9027 6.62575C13.8861 6.62387 13.8747 6.62274 13.8688 6.6222L13.8647 6.62182C13.3159 6.57888 12.9047 6.10024 12.9455 5.55083Z" fill="#13B67B"/>
</svg>
