<svg width="268" height="60" viewBox="0 0 268 60" fill="none" xmlns="http://www.w3.org/2000/svg">
    <g clip-path="url(#clip0_1513_3621)">
        <path d="M19.8413 59.9999C30.7993 59.9999 39.6825 51.2211 39.6825 40.392C39.6825 29.5629 30.7993 20.7842 19.8413 20.7842C8.88324 20.7842 0 29.5629 0 40.392C0 51.2211 8.88324 59.9999 19.8413 59.9999Z" fill="#13B67B"/>
        <path d="M19.8413 39.2157C30.7993 39.2157 39.6825 30.437 39.6825 19.6078C39.6825 8.77873 30.7993 0 19.8413 0C8.88324 0 0 8.77873 0 19.6078C0 30.437 8.88324 39.2157 19.8413 39.2157Z" fill="#003822"/>
        <path d="M20.5398 53.3332C18.5914 53.3332 16.7263 53.0626 14.9485 52.5214C13.1707 51.9803 11.5358 51.1685 10.0557 50.0861C8.57153 49.0038 7.28185 47.694 6.17868 46.1567C5.0755 44.5763 4.21042 42.745 3.57153 40.6665L11.5398 37.6665C12.1311 39.9136 13.2739 41.6626 14.758 43.1607C16.2422 44.6156 18.1906 45.345 20.6033 45.345C21.4922 45.345 22.3414 45.243 23.1469 45.0352C23.9961 44.7842 24.7342 44.4508 25.3731 44.0352C26.0517 43.5763 26.5795 43.0156 26.9604 42.3528C27.3414 41.6901 27.5318 40.9175 27.5318 40.043C27.5318 39.1685 27.385 38.4626 27.0874 37.7959C26.7898 37.1293 26.2818 36.5058 25.5636 35.9254C24.885 35.345 23.9763 34.7803 22.8295 34.2391C21.7263 33.6979 20.3493 33.1371 18.6985 32.5528L15.9009 31.5528C14.6707 31.1371 13.4207 30.5763 12.1509 29.8665C10.9207 29.1607 9.79772 28.3057 8.78185 27.3097C7.76598 26.3097 6.91677 25.145 6.2382 23.8156C5.60328 22.443 5.28582 20.9058 5.28582 19.1999C5.28582 17.494 5.62312 15.8312 6.30169 14.3332C7.02391 12.7959 8.01598 11.4626 9.28979 10.341C10.6033 9.17634 12.1509 8.28222 13.9287 7.65869C15.7501 6.99203 17.762 6.65869 19.9644 6.65869C22.1668 6.65869 24.2223 6.97242 25.8731 7.59595C27.5676 8.17634 28.9882 8.94889 30.1311 9.90575C31.3176 10.8195 32.2699 11.8391 32.9922 12.9646C33.7144 14.0861 34.2422 15.1489 34.5795 16.145L27.016 19.2626C26.5914 18.0156 25.8096 16.8901 24.6628 15.894C23.5596 14.894 22.0358 14.3959 20.0874 14.3959C18.139 14.3959 16.6787 14.8312 15.4485 15.7058C14.2184 16.5371 13.6072 17.6391 13.6072 19.0116C13.6072 20.3842 14.1985 21.4861 15.385 22.443C16.5715 23.3567 18.4565 24.2508 21.0398 25.1254L23.9009 26.0626C25.7223 26.6861 27.3771 27.4156 28.8572 28.2469C30.3811 29.0391 31.6747 29.992 32.7342 31.1175C33.8374 32.2391 34.6628 33.5293 35.2144 34.9842C35.8057 36.3999 36.1033 38.043 36.1033 39.9136C36.1033 42.243 35.6152 44.2587 34.643 45.9646C33.7104 47.6273 32.5041 48.9999 31.0199 50.0822C29.5358 51.1646 27.8652 51.9763 26.0001 52.5175C24.135 53.0587 22.3136 53.3293 20.5358 53.3293L20.5398 53.3332Z" fill="white"/>
        <path d="M45.5714 27.4863H41.2698V22.9451H45.5714V16.8628H52.123V22.9451H58.1269V27.4863H52.123V35.1922C52.123 35.651 52.1745 36.0824 52.2737 36.4902C52.4087 36.8706 52.6388 37.1922 52.9722 37.4628C53.4404 37.8942 54.1071 38.1099 54.9722 38.1099C55.5396 38.1099 55.988 38.0706 56.3214 37.9883C56.6547 37.8785 56.9722 37.7451 57.2737 37.5844L59.123 42.2471C58.3571 42.5451 57.5237 42.7608 56.623 42.8942C55.7579 43.055 54.7896 43.1373 53.7222 43.1373C52.488 43.1373 51.373 42.9883 50.369 42.6902C49.4007 42.3648 48.5833 41.9334 47.9166 41.3922C46.3491 40.1765 45.5634 38.4471 45.5634 36.204V27.4863H45.5714Z" fill="#13B67B"/>
        <path d="M73.8096 16.8628C75.7223 16.8628 77.4683 17.2 79.0477 17.8706C80.6588 18.5099 82.0358 19.4157 83.1786 20.5883C84.3532 21.7295 85.262 23.1059 85.8969 24.7138C86.5675 26.3255 86.9048 28.0863 86.9048 30C86.9048 31.9138 86.5675 33.6746 85.8969 35.2863C85.258 36.8981 84.3532 38.2902 83.1786 39.4628C82.0358 40.604 80.6588 41.5099 79.0477 42.1804C77.4683 42.8197 75.7223 43.1373 73.8096 43.1373C71.8969 43.1373 70.135 42.8197 68.5199 42.1804C66.9405 41.5099 65.5636 40.604 64.389 39.4628C63.2461 38.2902 62.3413 36.8942 61.6707 35.2863C61.0318 33.6746 60.7144 31.9138 60.7144 30C60.7144 28.0863 61.0318 26.3255 61.6707 24.7138C62.3413 23.102 63.2501 21.7255 64.389 20.5883C65.5636 19.4157 66.9405 18.5059 68.5199 17.8706C70.131 17.2 71.8929 16.8628 73.8096 16.8628ZM73.8096 37.0471C74.6509 37.0471 75.4564 36.8942 76.2263 36.5922C77.0318 36.255 77.7382 35.7883 78.3413 35.1844C78.9445 34.5804 79.4167 33.8432 79.7501 32.9687C80.1191 32.0981 80.3056 31.1059 80.3056 30C80.3056 28.8942 80.1231 27.902 79.7501 27.0314C79.4128 26.1608 78.9445 25.4197 78.3413 24.8157C77.7382 24.2118 77.0318 23.7569 76.2263 23.455C75.4524 23.1177 74.6469 22.953 73.8096 22.953C72.9723 22.953 72.1151 23.1216 71.3413 23.455C70.5675 23.7569 69.881 24.2118 69.2778 24.8157C68.6747 25.4197 68.1866 26.1569 67.8175 27.0314C67.4802 27.902 67.3136 28.8942 67.3136 30C67.3136 31.1059 67.4802 32.0981 67.8175 32.9687C68.1866 33.8393 68.6747 34.5804 69.2778 35.1844C69.881 35.7883 70.5715 36.2589 71.3413 36.5922C72.1151 36.8942 72.9366 37.0471 73.8096 37.0471Z" fill="#003822"/>
        <path d="M113.492 36.0393C112.409 38.1216 110.889 39.8314 108.929 41.1726C107 42.4824 104.583 43.1373 101.679 43.1373C99.7501 43.1373 97.9763 42.8197 96.3533 42.1805C94.766 41.5099 93.3771 40.5883 92.1946 39.4118C91.0438 38.2393 90.1311 36.8628 89.4565 35.2824C88.8136 33.6707 88.4922 31.9099 88.4922 29.9961C88.4922 28.0824 88.8136 26.3216 89.4565 24.7099C90.1311 23.0981 91.0438 21.7216 92.1946 20.5844C93.3771 19.4118 94.762 18.502 96.3533 17.8667C97.9763 17.1961 99.7501 16.8589 101.679 16.8589C104.552 16.8589 106.968 17.5138 108.929 18.8236C110.889 20.1334 112.326 21.8275 113.238 23.9059L107.155 26.4236C106.579 25.2824 105.837 24.4275 104.925 23.855C104.048 23.251 102.929 22.9491 101.579 22.9491C100.703 22.9491 99.8731 23.1177 99.0954 23.451C98.3176 23.7883 97.6231 24.255 97.016 24.8589C96.4406 25.4628 95.9843 26.2001 95.6469 27.0746C95.3096 27.9452 95.139 28.9216 95.139 29.9922C95.139 31.0628 95.3096 32.0393 95.6469 32.9099C95.9843 33.7805 96.4406 34.5216 97.016 35.1256C97.6231 35.7295 98.3176 36.2001 99.0954 36.5334C99.8731 36.8707 100.703 37.0354 101.579 37.0354C102.964 37.0354 104.131 36.7334 105.079 36.1295C106.06 35.4903 106.837 34.5844 107.413 33.4118L113.496 36.0275L113.492 36.0393Z" fill="#13B67B"/>
        <path d="M115.079 16.8628V43.1373H121.821V36.1177L124.806 33.5844L131.702 43.1334H139.683V42.7765L129.544 29.5844L138.913 21.7216V21.3648H130.575L122.135 28.651H121.825V16.8589H115.083L115.079 16.8628Z" fill="#13B67B"/>
        <path d="M141.27 16.8628H149.686L154.325 33.3255H154.726L160.282 16.8628H168.012L173.623 33.3255H174.024L178.603 16.8628H186.905L177.917 43.1373H169.841L164.23 26.5687H163.829L158.218 43.1373H150.258L141.27 16.8628Z" fill="#13B67B"/>
        <path d="M201.786 16.8628C203.73 16.8628 205.5 17.2 207.103 17.8706C208.738 18.5099 210.135 19.4157 211.298 20.5883C212.492 21.7295 213.413 23.1059 214.059 24.7138C214.742 26.3255 215.083 28.0863 215.083 30C215.083 31.9138 214.742 33.6746 214.059 35.2863C213.413 36.8981 212.492 38.2902 211.298 39.4628C210.139 40.604 208.742 41.5099 207.103 42.1804C205.5 42.8197 203.73 43.1373 201.786 43.1373C199.841 43.1373 198.052 42.8197 196.417 42.1804C194.813 41.5099 193.417 40.604 192.222 39.4628C191.063 38.2902 190.143 36.8942 189.46 35.2863C188.813 33.6746 188.488 31.9138 188.488 30C188.488 28.0863 188.813 26.3255 189.46 24.7138C190.143 23.102 191.063 21.7255 192.222 20.5883C193.417 19.4157 194.813 18.5059 196.417 17.8706C198.052 17.2 199.841 16.8628 201.786 16.8628ZM201.786 37.0471C202.639 37.0471 203.456 36.8942 204.238 36.5922C205.055 36.255 205.77 35.7883 206.385 35.1844C207 34.5804 207.476 33.8432 207.817 32.9687C208.194 32.0981 208.381 31.1059 208.381 30C208.381 28.8942 208.194 27.902 207.817 27.0314C207.476 26.1608 207 25.4197 206.385 24.8157C205.77 24.2118 205.055 23.7569 204.238 23.455C203.452 23.1177 202.635 22.953 201.786 22.953C200.936 22.953 200.063 23.1216 199.282 23.455C198.496 23.7569 197.798 24.2118 197.186 24.8157C196.571 25.4197 196.079 26.1569 195.702 27.0314C195.361 27.902 195.19 28.8942 195.19 30C195.19 31.1059 195.361 32.0981 195.702 32.9687C196.079 33.8393 196.571 34.5804 197.186 35.1844C197.802 35.7883 198.5 36.2589 199.282 36.5922C200.063 36.8942 200.901 37.0471 201.786 37.0471Z" fill="#003822"/>
        <path d="M223.81 16.8628H216.667V43.1373H223.81V16.8628Z" fill="#13B67B"/>
        <path d="M223.81 28.6079C223.893 28.0667 224.028 27.5569 224.214 27.0785C224.552 26.2079 225.008 25.4667 225.583 24.8628C226.191 24.2589 226.885 23.7883 227.663 23.455C228.441 23.1177 229.27 22.953 230.147 22.953C231.5 22.953 232.615 23.255 233.492 23.8589C234.405 24.4275 235.147 25.2863 235.722 26.4275L241.81 23.9099C240.897 21.8275 239.46 20.1334 237.5 18.8275C235.54 17.5177 233.123 16.8628 230.25 16.8628C228.321 16.8628 226.548 17.2 224.925 17.8706C224.54 18.0236 224.171 18.1922 223.81 18.3804V28.6118V28.6079Z" fill="#13B67B"/>
        <path d="M243.397 16.8628V43.1373H250.139V36.1177L253.123 33.5844L260.02 43.1334H268V42.7765L257.861 29.5844L267.23 21.7216V21.3648H258.893L250.452 28.651H250.143V16.8589H243.401L243.397 16.8628Z" fill="#13B67B"/>
    </g>
    <defs>
        <clipPath id="clip0_1513_3621">
            <rect width="268" height="60" fill="white"/>
        </clipPath>
    </defs>
</svg>
