<svg width="201" height="44" viewBox="0 0 201 44" fill="none" xmlns="http://www.w3.org/2000/svg">
<g clip-path="url(#clip0_376_6273)" filter="url(#filter0_d_376_6273)">
<g filter="url(#filter1_d_376_6273)">
<path d="M4.38232 20.6652C8.55342 17.49 11.3414 14.7868 14.1509 11.3112C16.593 8.26472 18.5165 4.89643 19.489 2.08594C23.9987 3.05852 26.2536 3.68784 26.2536 3.9739C26.2536 4.31716 25.8213 4.55316 24.503 4.83206C26.5345 7.6211 28.6957 9.50906 32.24 11.5257C35.4602 13.3708 38.0753 14.3148 41.7709 14.9584V15.4304C40.6903 15.9238 40.1716 16.31 39.7178 16.9751C39.2855 17.5544 38.8317 18.5627 38.5507 19.3994C38.3994 19.9358 38.2698 20.0645 38.0104 20.0645C37.6214 20.0645 36.2599 19.335 34.747 18.2409C31.8726 16.31 29.3441 13.8428 27.3125 11.0538C26.1023 9.42324 25.2594 7.96436 23.8979 5.30405C20.829 9.78796 18.3652 12.4483 14.8641 15.1515C11.6655 17.5973 8.42375 19.5067 4.62005 21.0514L4.38232 20.6652ZM8.85599 21.9739C9.87174 22.2099 10.8443 22.3172 11.9249 22.3172H29.3657C30.3814 21.2659 30.684 20.9226 31.743 19.9143C33.299 20.987 33.7745 21.3517 35.2873 22.4673C35.6331 22.7677 35.7844 22.9608 35.7844 23.1539C35.7844 23.583 35.2873 23.9262 33.9474 24.3124C32.2833 28.0883 29.3224 33.7093 27.2909 37.0132C26.9451 37.4852 26.621 37.6354 26.0374 37.6354C24.7623 37.6354 22.9253 37.335 22.4931 37.0132C22.2986 36.906 22.1905 36.7129 22.1905 36.5198C22.1905 36.4125 22.2986 36.1336 22.4931 35.8333C25.3026 31.4995 27.6799 27.0585 29.3441 23.1324H11.8816C10.7578 23.1324 10.1743 23.1753 9.11533 23.3684L8.83437 21.9739H8.85599ZM14.3886 15.9453C15.2747 16.1384 16.0527 16.2242 16.9604 16.2242H24.0491C25.2594 14.7868 25.6484 14.3791 26.8587 13.049C28.7173 14.4435 29.2792 14.894 31.073 16.4173C31.2243 16.5675 31.3107 16.6962 31.3107 16.7605C31.3107 16.9107 31.1162 17.0395 30.8353 17.0395H16.874C16.0527 17.0395 15.5557 17.0824 14.6264 17.2325L14.3886 15.9667V15.9453Z" fill="white"/>
</g>
<g filter="url(#filter2_d_376_6273)">
<path d="M48.3408 21.1585C46.3957 22.7032 46.0931 22.9821 43.5213 24.5912L43.2188 24.205C45.5528 21.652 47.0657 19.6138 48.8162 16.6317C50.5236 13.7354 51.2584 12.1049 51.7338 10.2169C56.4452 11.7187 57.3097 12.062 57.3097 12.534C57.3097 12.9201 56.7694 13.1561 55.5159 13.2205C54.0679 15.3874 53.0738 16.6961 51.6258 18.1549C53.1818 18.4982 53.6789 18.7342 53.6789 19.056C53.6789 19.3778 53.2899 19.5924 52.4254 19.8713V27.3159C52.4254 29.0107 52.4254 32.1001 52.4686 36.6269C52.4254 37.1204 52.3606 37.3993 52.1661 37.5495C51.8203 37.8284 50.7613 37.9785 49.443 37.9785C48.384 37.9785 48.1679 37.7855 48.1679 36.9702C48.3192 31.1776 48.3624 30.5125 48.3624 27.3802V21.1156L48.3408 21.1585ZM43.5213 13.1561C45.7041 11.0751 47.1737 9.18713 48.8595 6.441C50.0697 4.46722 50.502 3.5876 50.9126 2C56.5533 3.78069 57.0287 3.97378 57.0287 4.46722C57.0287 4.89631 56.5317 5.04648 55.0405 5.08939C51.2368 9.23004 48.6649 11.1609 43.8239 13.5423L43.5213 13.1561ZM71.2278 12.8558C76.3714 15.0226 79.289 17.1466 79.289 18.8844C79.289 19.6138 78.9432 20.6222 78.4677 21.3516C78.0787 21.9738 77.452 22.36 76.8685 22.36C76.393 22.36 76.1769 22.081 75.7446 21.0942C75.0531 19.4636 74.7721 18.8629 74.1886 17.7259C71.2278 18.348 66.646 19.1204 62.972 19.6567C63.5988 19.8069 64.0526 19.9356 64.3768 20C66.0409 20.3433 66.3219 20.472 66.3219 20.7294C66.3219 21.0727 65.8896 21.2229 64.6794 21.4589C64.3768 21.9952 64.2903 22.1883 63.9878 22.6603H70.0607C71.0333 21.652 71.3142 21.3945 72.3084 20.4505C73.778 21.5662 74.2534 21.9523 75.7014 23.1538C76.004 23.4327 76.1769 23.6257 76.1769 23.7759C76.1769 24.1621 75.7446 24.3552 74.3399 24.6985C72.1571 27.5518 71.1197 28.7533 69.3907 30.298C72.5461 31.7354 76.1553 32.4219 80.6073 32.5292V32.9154C79.1593 33.6448 78.3813 34.6103 77.8842 36.3051C77.6465 37.1204 77.5817 37.1847 77.2575 37.1847C76.4362 37.1847 73.5186 36.2193 71.8545 35.3611C70.0175 34.4815 68.5479 33.4732 67.0783 32.1216C65.1764 33.4303 62.9072 34.7175 60.9189 35.5113C58.9306 36.3266 57.18 36.82 53.5276 37.5924L53.3331 37.0989C57.9581 35.2539 61.4376 33.1299 64.9387 29.9118C63.6204 28.3671 62.8423 27.1013 62.0643 25.2777C59.6222 28.2598 57.1584 30.2551 53.506 32.2288L53.2251 31.8427C55.6672 29.3754 57.1152 27.5518 58.7145 24.7843C59.7302 23.0465 60.465 21.4589 60.9621 20.0429L56.5317 20.7294C56.4236 21.652 56.1427 22.1669 55.7969 22.1669C55.5087 22.1669 55.0837 20.4434 54.5218 16.9964C56.1859 17.1466 57.0071 17.1895 58.2606 17.1895C58.4984 17.1895 58.6929 17.1895 62.194 17.1037C63.75 15.6019 64.6794 14.5077 66.3651 12.2765C68.7424 9.23004 69.823 7.53516 70.9252 5.3683C72.049 5.94756 72.9567 6.33373 73.497 6.61263C75.9391 7.72825 76.5443 8.05006 76.5443 8.43623C76.5443 8.82241 76.0472 8.97259 74.556 8.97259C69.6501 13.2634 67.9428 14.615 64.2471 17.0822H65.3709C67.316 17.0393 70.3849 16.8892 73.6483 16.6532C72.719 15.0656 72.2435 14.4434 70.9684 13.1347L71.271 12.8343L71.2278 12.8558ZM56.4885 6.91299C58.5416 7.64243 59.4925 7.9857 61.0486 8.75805C62.2588 6.20501 62.8856 4.23123 63.1449 2.15018C64.3552 2.49344 65.2413 2.72944 65.868 2.92253C68.7856 3.73778 69.3691 3.97378 69.3691 4.35995C69.3691 4.74613 68.8288 4.89631 67.4673 5.02503C65.2197 7.34207 64.2687 8.20024 62.4533 9.55185C64.0526 10.5602 64.5497 11.1395 64.5497 12.0191C64.5497 13.478 63.2962 15.0656 62.1724 15.0656C61.7834 15.0656 61.5456 14.9154 61.2863 14.4005C61.1782 14.1645 61.0918 14.0143 60.6163 13.006C59.6438 10.8391 58.3255 9.14422 56.1859 7.27771L56.4885 6.89154V6.91299ZM63.4475 23.4756C63.1017 23.969 62.9504 24.1621 62.5182 24.7414C63.5772 26.3719 64.2687 27.0584 66.3219 28.5602C68.0724 26.6722 68.8072 25.6639 70.0607 23.4541H63.4475V23.4756Z" fill="white"/>
</g>
<g filter="url(#filter3_d_376_6273)">
<path d="M98.5667 34.4162C102.738 33.1505 105.655 31.4341 107.99 28.924C110.605 26.135 111.88 22.7452 111.88 18.7547C111.88 12.1469 107.838 8.19933 101.139 8.19933C100.641 8.19933 100.317 8.19933 99.5825 8.28514C100.944 9.87275 101.376 10.9025 101.376 12.4258C101.376 15.5152 99.388 20.9216 96.6 25.5986C94.0715 29.7822 91.8238 31.9061 89.8571 31.9061C88.9927 31.9061 88.193 31.4341 87.7608 30.7905C87.4582 30.2112 87.2205 29.6749 86.8747 28.2375C86.637 27.3149 86.3344 26.7786 85.2106 25.3841C84.2813 24.2255 83.6978 22.5307 83.6978 20.9431C83.6978 18.5188 84.9512 15.5795 86.9611 13.2196C90.311 9.27203 95.8436 6.89062 101.636 6.89062C110.324 6.89062 116.505 12.34 116.505 19.9776C116.505 25.5772 113.392 30.0611 107.752 32.657C105.331 33.7726 102.846 34.4377 98.7612 34.9741L98.61 34.4377L98.5667 34.4162ZM91.2835 12.4258C88.6036 15.0861 87.1124 18.3686 87.1124 21.6296C87.1124 24.2899 88.4308 27.036 89.7491 27.036C91.0674 27.036 93.596 23.8179 96.1246 19.0766C98.0697 15.4508 99.2367 12.2327 99.2367 10.5378C99.2367 10.1087 99.1935 9.6153 99.0854 9.27203C98.999 8.97167 98.8045 8.41387 98.7828 8.41387C95.6275 9.1004 93.5312 10.2375 91.2835 12.4258Z" fill="white"/>
</g>
<g filter="url(#filter4_d_376_6273)">
<path d="M119.833 11.5043C122.707 12.1908 123.874 12.5555 124.977 13.0919C126.49 13.8642 127.16 14.6795 127.16 15.838C127.16 17.2969 125.841 19.0132 124.674 19.0132C124.199 19.0132 123.896 18.67 123.55 17.8547C122.47 15.0013 121.605 13.757 119.574 11.9119L119.855 11.5257L119.833 11.5043ZM120.071 25.4066C121.778 25.8356 122.491 25.9429 122.902 25.9429C123.485 25.9429 123.723 25.664 124.804 23.6259C126.706 20.1074 128.932 15.0871 131.071 9.59488L131.655 9.78796L126.792 25.9C126.403 27.2945 126.317 27.552 126.317 28.0669C126.317 28.5389 126.403 28.7963 126.749 29.8047C127.289 31.3064 127.484 32.2075 127.484 33.13C127.484 34.1813 127.203 35.1467 126.749 35.7903C126.057 36.7987 124.89 37.3779 123.723 37.3779C122.902 37.3779 122.448 36.9489 122.448 36.2194C122.448 36.0263 122.556 35.254 122.643 34.5675C122.988 32.4435 123.14 30.8988 123.14 29.6974C123.14 28.496 122.902 27.7236 122.362 27.2302C121.973 26.844 121.54 26.608 119.941 25.9644L120.049 25.428L120.071 25.4066ZM121.973 2.62229C124.393 3.24446 126.144 3.82372 127.505 4.46734C129.148 5.23969 129.839 6.09786 129.839 7.25638C129.839 8.84398 128.586 10.453 127.397 10.453C126.922 10.453 126.619 10.1527 126.317 9.40179C125.042 6.35531 124.134 5.11097 121.735 2.98701L122.016 2.60084L121.973 2.62229ZM126.987 37.4638C129.429 35.4471 130.596 34.0311 131.612 31.8642C132.671 29.633 133.124 26.5436 133.124 22.1241C133.124 21.0085 133.081 20.1932 133.016 18.6485C137.879 19.0347 138.549 19.142 138.549 19.6139C138.549 19.9143 138.246 20.1074 137.295 20.4292C137.187 26.7153 136.755 29.2039 135.264 31.6712C133.751 34.1813 131.525 35.9191 127.203 37.8499L126.965 37.4638H126.987ZM142.871 7.92146C140.818 10.8178 140.343 11.397 137.857 14.1002C141.402 13.993 144.363 13.8213 148.404 13.521C147.042 11.6759 146.416 11.0108 144.752 9.50906L145.033 9.12289C152.143 11.869 153.98 13.0919 153.98 15.2588C153.98 16.8035 152.77 18.4769 151.646 18.4769C151.257 18.4769 150.976 18.2409 150.716 17.5973C150.09 16.3315 149.744 15.6235 149.204 14.701C145.126 15.6306 139.572 16.7534 132.541 18.0693C132.39 18.7987 132.152 19.1849 131.849 19.1849C131.46 19.1849 131.46 19.142 130.531 14.0788C132.087 14.1861 132.714 14.229 133.946 14.229C134.248 14.229 135.113 14.229 136.042 14.1861C136.734 11.9548 137.015 10.7534 137.49 7.92146H133.362C132.346 7.92146 131.806 8.00727 130.985 8.20036L130.682 6.80584C131.612 6.99893 132.476 7.1062 133.362 7.1062H139.305V5.17533C139.305 3.9739 139.262 3.43755 139.111 2.08594C140.472 2.23612 141.488 2.32193 142.137 2.36484C144.579 2.60084 145.335 2.79392 145.335 3.22301C145.335 3.56627 144.989 3.75936 143.671 4.10262V7.1062H149.117C150.371 5.66877 150.716 5.2826 151.927 3.93099C153.829 5.36842 154.412 5.77605 156.314 7.25638C156.508 7.44947 156.595 7.55674 156.595 7.68546C156.595 7.83564 156.444 7.92146 156.163 7.92146H142.893H142.871ZM143.498 26.2004C143.498 29.8261 143.498 31.6926 143.585 35.5973C143.585 35.8976 143.541 36.0693 143.476 36.1765C143.239 36.4554 142.396 36.6056 140.948 36.6056C139.738 36.6056 139.543 36.5198 139.543 35.8762C139.63 31.9286 139.651 28.6247 139.651 22.6175C139.651 21.0728 139.608 20.3005 139.543 18.6056C144.644 19.142 144.881 19.1849 144.881 19.6569C144.881 19.9572 144.579 20.1503 143.52 20.4292V26.2218L143.498 26.2004ZM146.416 22.1026C146.416 20.6437 146.372 19.9787 146.308 18.434C151.603 19.0132 151.667 19.0561 151.667 19.5067C151.667 19.807 151.365 20.0001 150.219 20.3648V32.4221C150.219 33.0871 150.306 33.1086 151.343 33.1086C152.51 33.1086 152.856 33.0013 153.094 32.6151C153.44 32.0359 154.023 30.105 155.428 24.7629L155.925 24.8488L155.493 31.4995V31.7355C155.493 32.3148 155.601 32.5508 156.076 32.7868C156.854 33.1729 157.135 33.602 157.135 34.2886C157.135 35.1896 156.638 35.9191 155.817 36.2194C154.931 36.5198 153.288 36.6914 150.803 36.6914C146.87 36.6914 146.372 36.4125 146.372 34.1813V34.074C146.401 32.043 146.416 30.6271 146.416 29.8261V22.1455V22.1026Z" fill="white"/>
</g>
<g filter="url(#filter5_d_376_6273)">
<path d="M162.949 29.7826C162.322 31.1771 162.019 31.5204 161.436 31.5204C160.463 31.5204 159.642 29.8684 159.642 27.8946C159.642 27.0794 159.75 26.8434 160.507 26.1139C161.285 25.3845 161.976 24.5692 163.122 22.9816C165.585 19.5776 167.113 17.4036 167.703 16.4596C167.732 16.0734 167.761 15.6086 167.79 15.0651C167.819 14.5216 167.847 14.1211 167.876 13.8636C167.069 14.3499 165.888 15.1366 164.332 16.2236C163.662 16.6956 163.403 16.8028 163.014 16.8028C162.279 16.8028 161.414 16.1378 160.679 14.9792C160.139 14.164 159.793 13.2415 159.793 12.6622C159.793 12.4691 159.88 12.1902 160.031 11.7397C160.896 13.1342 161.738 13.7564 162.841 13.7564C163.727 13.7564 165.845 13.0269 168.049 11.9113C168.244 10.2164 168.287 9.20808 168.287 7.70629C168.287 5.53943 167.595 4.23073 165.801 3.22238C166.104 3.07221 166.299 3.0293 166.536 3.0293C167.595 3.0293 169.173 3.69437 170.534 4.72417C171.853 5.73251 172.566 6.69795 172.566 7.53466C172.566 8.0281 172.48 8.30701 172.069 9.16517C171.658 10.0233 171.485 10.5168 171.291 11.3749C172.177 12.04 172.609 12.5764 172.609 13.0698C172.609 13.3487 172.458 13.6062 171.939 14.3356C171.248 15.3869 170.859 16.0305 170.578 16.5668C170.534 16.8028 170.491 17.2319 170.491 17.8755C176.024 12.276 179.828 9.76589 182.745 9.76589C185.663 9.76589 187.759 11.804 187.759 14.8934C187.759 16.009 187.521 17.8326 187.089 20.4286C186.311 25.1056 186.16 26.307 186.16 27.8517C186.16 29.5895 187.046 30.512 188.775 30.512C190.871 30.512 193.53 29.3106 196.166 27.1866L196.404 27.487C194.156 31.3916 190.525 33.8589 187.176 33.8589C183.826 33.8589 182.01 31.692 182.01 28.1306C182.01 26.4357 182.205 25.1914 183.329 20.021C183.955 17.2105 184.215 15.3869 184.215 14.1854C184.215 12.4047 183.35 11.3964 181.838 11.3964C179.266 11.3964 175.073 14.872 170.318 20.9649C170.275 21.7373 170.275 21.7802 170.275 22.6169C170.275 25.5132 170.362 27.2081 170.707 30.1902C170.794 30.8767 170.815 31.4989 170.815 31.9709C170.815 32.9792 170.513 34.2879 170.081 35.1676C169.584 36.1759 168.87 36.6693 168.028 36.6693C167.552 36.6693 167.141 36.4333 166.86 36.0472C166.709 35.8112 166.666 35.661 166.58 35.0388C166.342 33.7301 166.147 33.0221 165.693 32.2498C165.023 31.1342 164.375 30.276 163.273 29.0746L162.97 29.6968L162.949 29.7826ZM163.619 28.3881C164.872 29.3535 166.234 30.2331 167.271 30.748C167.329 29.4322 167.379 27.344 167.422 24.4834C167.466 23.1747 167.466 22.3165 167.53 20.922C165.196 25.363 163.878 27.8303 163.597 28.3666L163.619 28.3881Z" fill="white"/>
</g>
</g>
<defs>
<filter id="filter0_d_376_6273" x="0.382324" y="0" width="200" height="44" filterUnits="userSpaceOnUse" color-interpolation-filters="sRGB">
<feFlood flood-opacity="0" result="BackgroundImageFix"/>
<feColorMatrix in="SourceAlpha" type="matrix" values="0 0 0 0 0 0 0 0 0 0 0 0 0 0 0 0 0 0 127 0" result="hardAlpha"/>
<feOffset dy="2"/>
<feGaussianBlur stdDeviation="2"/>
<feComposite in2="hardAlpha" operator="out"/>
<feColorMatrix type="matrix" values="0 0 0 0 1 0 0 0 0 1 0 0 0 0 1 0 0 0 0.7 0"/>
<feBlend mode="normal" in2="BackgroundImageFix" result="effect1_dropShadow_376_6273"/>
<feBlend mode="normal" in="SourceGraphic" in2="effect1_dropShadow_376_6273" result="shape"/>
</filter>
<filter id="filter1_d_376_6273" x="0.382324" y="0.0859375" width="45.3887" height="43.5488" filterUnits="userSpaceOnUse" color-interpolation-filters="sRGB">
<feFlood flood-opacity="0" result="BackgroundImageFix"/>
<feColorMatrix in="SourceAlpha" type="matrix" values="0 0 0 0 0 0 0 0 0 0 0 0 0 0 0 0 0 0 127 0" result="hardAlpha"/>
<feOffset dy="2"/>
<feGaussianBlur stdDeviation="2"/>
<feComposite in2="hardAlpha" operator="out"/>
<feColorMatrix type="matrix" values="0 0 0 0 1 0 0 0 0 1 0 0 0 0 1 0 0 0 0.7 0"/>
<feBlend mode="normal" in2="BackgroundImageFix" result="effect1_dropShadow_376_6273"/>
<feBlend mode="normal" in="SourceGraphic" in2="effect1_dropShadow_376_6273" result="shape"/>
</filter>
<filter id="filter2_d_376_6273" x="39.2188" y="0" width="45.3887" height="43.9785" filterUnits="userSpaceOnUse" color-interpolation-filters="sRGB">
<feFlood flood-opacity="0" result="BackgroundImageFix"/>
<feColorMatrix in="SourceAlpha" type="matrix" values="0 0 0 0 0 0 0 0 0 0 0 0 0 0 0 0 0 0 127 0" result="hardAlpha"/>
<feOffset dy="2"/>
<feGaussianBlur stdDeviation="2"/>
<feComposite in2="hardAlpha" operator="out"/>
<feColorMatrix type="matrix" values="0 0 0 0 1 0 0 0 0 1 0 0 0 0 1 0 0 0 0.7 0"/>
<feBlend mode="normal" in2="BackgroundImageFix" result="effect1_dropShadow_376_6273"/>
<feBlend mode="normal" in="SourceGraphic" in2="effect1_dropShadow_376_6273" result="shape"/>
</filter>
<filter id="filter3_d_376_6273" x="79.6978" y="4.89062" width="40.8066" height="36.084" filterUnits="userSpaceOnUse" color-interpolation-filters="sRGB">
<feFlood flood-opacity="0" result="BackgroundImageFix"/>
<feColorMatrix in="SourceAlpha" type="matrix" values="0 0 0 0 0 0 0 0 0 0 0 0 0 0 0 0 0 0 127 0" result="hardAlpha"/>
<feOffset dy="2"/>
<feGaussianBlur stdDeviation="2"/>
<feComposite in2="hardAlpha" operator="out"/>
<feColorMatrix type="matrix" values="0 0 0 0 1 0 0 0 0 1 0 0 0 0 1 0 0 0 0.7 0"/>
<feBlend mode="normal" in2="BackgroundImageFix" result="effect1_dropShadow_376_6273"/>
<feBlend mode="normal" in="SourceGraphic" in2="effect1_dropShadow_376_6273" result="shape"/>
</filter>
<filter id="filter4_d_376_6273" x="115.574" y="0.0859375" width="45.5615" height="43.7637" filterUnits="userSpaceOnUse" color-interpolation-filters="sRGB">
<feFlood flood-opacity="0" result="BackgroundImageFix"/>
<feColorMatrix in="SourceAlpha" type="matrix" values="0 0 0 0 0 0 0 0 0 0 0 0 0 0 0 0 0 0 127 0" result="hardAlpha"/>
<feOffset dy="2"/>
<feGaussianBlur stdDeviation="2"/>
<feComposite in2="hardAlpha" operator="out"/>
<feColorMatrix type="matrix" values="0 0 0 0 1 0 0 0 0 1 0 0 0 0 1 0 0 0 0.7 0"/>
<feBlend mode="normal" in2="BackgroundImageFix" result="effect1_dropShadow_376_6273"/>
<feBlend mode="normal" in="SourceGraphic" in2="effect1_dropShadow_376_6273" result="shape"/>
</filter>
<filter id="filter5_d_376_6273" x="155.642" y="1.0293" width="44.7617" height="41.6406" filterUnits="userSpaceOnUse" color-interpolation-filters="sRGB">
<feFlood flood-opacity="0" result="BackgroundImageFix"/>
<feColorMatrix in="SourceAlpha" type="matrix" values="0 0 0 0 0 0 0 0 0 0 0 0 0 0 0 0 0 0 127 0" result="hardAlpha"/>
<feOffset dy="2"/>
<feGaussianBlur stdDeviation="2"/>
<feComposite in2="hardAlpha" operator="out"/>
<feColorMatrix type="matrix" values="0 0 0 0 1 0 0 0 0 1 0 0 0 0 1 0 0 0 0.7 0"/>
<feBlend mode="normal" in2="BackgroundImageFix" result="effect1_dropShadow_376_6273"/>
<feBlend mode="normal" in="SourceGraphic" in2="effect1_dropShadow_376_6273" result="shape"/>
</filter>
<clipPath id="clip0_376_6273">
<rect width="192" height="36" fill="white" transform="translate(4.38232 2)"/>
</clipPath>
</defs>
</svg>
