<svg width="50" height="50" viewBox="0 0 50 50" fill="none" xmlns="http://www.w3.org/2000/svg">
    <circle cx="25" cy="25" r="25" fill="#D6F2E8"/>
    <path fill-rule="evenodd" clip-rule="evenodd" d="M15.7401 25.0028C15.7401 19.889 19.8856 15.7435 24.9994 15.7435C30.1131 15.7435 34.2586 19.889 34.2586 25.0028C34.2586 30.1165 30.1131 34.262 24.9994 34.262C19.8856 34.262 15.7401 30.1165 15.7401 25.0028ZM24.9994 13.4287C18.6072 13.4287 13.4253 18.6106 13.4253 25.0028C13.4253 31.395 18.6072 36.5769 24.9994 36.5769C31.3915 36.5769 36.5734 31.395 36.5734 25.0028C36.5734 18.6106 31.3915 13.4287 24.9994 13.4287ZM20.5783 18.5532C20.9443 18.0291 21.6658 17.9009 22.1899 18.2669L24.9995 20.2288L27.809 18.2669C28.3331 17.9009 29.0547 18.0291 29.4206 18.5532C29.7866 19.0773 29.6584 19.7988 29.1343 20.1648L26.3247 22.1267C26.2699 22.165 26.2139 22.2006 26.1568 22.2336L26.1569 22.2466V22.5315H28.4717C29.1109 22.5315 29.6291 23.0497 29.6291 23.689C29.6291 24.3282 29.1109 24.8464 28.4717 24.8464H26.1569V26.3408H28.4717C29.1109 26.3408 29.6291 26.859 29.6291 27.4982C29.6291 28.1375 29.1109 28.6556 28.4717 28.6556H26.1569V31.945C26.1569 32.5843 25.6387 33.1024 24.9995 33.1024C24.3602 33.1024 23.8421 32.5843 23.8421 31.945V28.6556H21.5272C20.888 28.6556 20.3698 28.1375 20.3698 27.4982C20.3698 26.859 20.888 26.3408 21.5272 26.3408H23.8421V24.8464H21.5272C20.888 24.8464 20.3698 24.3282 20.3698 23.689C20.3698 23.0497 20.888 22.5315 21.5272 22.5315H23.8421V22.2466L23.8421 22.2336C23.785 22.2006 23.729 22.165 23.6742 22.1267L20.8646 20.1648C20.3405 19.7988 20.2123 19.0773 20.5783 18.5532Z" fill="#13B67B"/>
</svg>
