<svg width="21" height="20" viewBox="0 0 21 20" fill="none" xmlns="http://www.w3.org/2000/svg">
<path fill-rule="evenodd" clip-rule="evenodd" d="M1.97499 0C0.963841 0 0.0485727 0.775381 0.0101677 1.86772C-0.06422 3.9835 0.260072 6.61697 1.29729 9.2218C2.79497 12.983 5.78186 16.6804 11.1404 18.62C13.0868 19.3245 15.3312 19.7914 17.9098 19.9516C19.0701 20.0238 20 19.0886 20 17.971V15.26C20 14.3617 19.401 13.5735 18.5354 13.333L15.8524 12.5875C15.0834 12.3739 14.2609 12.6379 13.76 13.2593L11.1597 16.4847C7.15314 14.8464 4.78436 12.0866 3.45958 9.19333L6.88881 6.70926C7.5542 6.22727 7.85711 5.38737 7.65256 4.59162L6.85834 1.50206C6.63108 0.618015 5.83411 0 4.92132 0H1.97499ZM18 17.9534C16.1999 17.8393 14.5985 17.5668 13.1753 17.1711L15.317 14.5145L18 15.26V17.9534ZM5.71553 5.08956L2.72492 7.2559C2.14923 5.37473 1.95977 3.5303 2.00689 2H4.92132L5.71553 5.08956ZM12.7235 0.892983C12.7841 0.344036 13.2783 -0.051825 13.8273 0.00880234L13.7175 1.00276C13.7724 0.50557 13.7998 0.257073 13.8134 0.132876C13.8269 0.0102127 13.8271 0.00880155 13.8272 0.00880194L13.8273 0.00880234L13.83 0.00911123L13.8336 0.00952267L13.8433 0.0106656L13.8724 0.0143219C13.8961 0.0174022 13.9281 0.0218186 13.9677 0.0278431C14.0469 0.039883 14.1569 0.0584034 14.2918 0.0856177C14.5607 0.139895 14.9327 0.229605 15.3583 0.373395C16.1993 0.65749 17.3061 1.17163 18.2274 2.09295C19.1564 3.02195 19.6823 4.1916 19.9759 5.0762C20.1253 5.52639 20.2211 5.92279 20.28 6.20913C20.3095 6.35273 20.33 6.46982 20.3434 6.55356C20.3501 6.59547 20.3551 6.62912 20.3586 6.65366L20.3626 6.68359L20.3639 6.69325L20.3643 6.69673L20.3645 6.69812C20.3645 6.69841 20.3646 6.69929 19.3721 6.8211L20.3646 6.69929C20.4319 7.24746 20.0421 7.74638 19.4939 7.81365C18.9461 7.88088 18.4475 7.4916 18.3797 6.94401L18.3781 6.93224C18.3763 6.91981 18.3732 6.89882 18.3686 6.87008C18.3594 6.81255 18.3441 6.72436 18.321 6.61195C18.2746 6.38627 18.1977 6.06772 18.0777 5.70619C17.8325 4.96734 17.4325 4.12647 16.8132 3.50717C16.1862 2.88019 15.3916 2.49568 14.7182 2.2682C14.3867 2.1562 14.0983 2.08689 13.8961 2.0461C13.7954 2.02577 13.7172 2.01275 13.6671 2.00512C13.642 2.00131 13.6241 1.99887 13.6139 1.99754L13.6048 1.99639C13.0573 1.93432 12.663 1.44095 12.7235 0.892983ZM10.9455 3.55083C10.9864 3.00006 11.4661 2.58672 12.0168 2.62762L11.9428 3.62488C12.0168 2.62762 12.0165 2.6276 12.0168 2.62762L12.0194 2.62781L12.0225 2.62806L12.0307 2.62873L12.0543 2.63081C12.0731 2.63257 12.0981 2.63508 12.1288 2.63857C12.1899 2.64553 12.274 2.65641 12.3762 2.67292C12.5797 2.70579 12.8604 2.76178 13.1793 2.8557C13.801 3.03878 14.6498 3.38974 15.3309 4.0708C16.0307 4.77057 16.3542 5.65983 16.5097 6.30259C16.5898 6.6337 16.6315 6.92566 16.6535 7.13696C16.6646 7.24318 16.6708 7.33055 16.6742 7.39413C16.676 7.42596 16.6771 7.45195 16.6777 7.47149L16.6784 7.49593L16.6786 7.50442L16.6787 7.5077L16.6787 7.5091C16.6787 7.5094 16.6787 7.51033 15.7191 7.52407L16.6787 7.51034C16.6866 8.06257 16.2453 8.51664 15.6931 8.52454C15.1423 8.53242 14.6891 8.09339 14.679 7.54311L14.6789 7.53874C14.6786 7.53264 14.6782 7.52075 14.6772 7.50364C14.6754 7.46934 14.6716 7.41457 14.6642 7.34379C14.6494 7.20109 14.6206 6.99958 14.5658 6.77282C14.4514 6.29983 14.2474 5.81572 13.9167 5.48502C13.5673 5.13561 13.0756 4.91005 12.6144 4.77424C12.3918 4.70871 12.1955 4.66965 12.0573 4.64734C11.9887 4.63625 11.9358 4.62951 11.9027 4.62575C11.8861 4.62387 11.8747 4.62274 11.8688 4.6222L11.8647 4.62182C11.3159 4.57888 10.9047 4.10024 10.9455 3.55083Z" fill="#13B67B"/>
</svg>
