<svg width="36" height="36" viewBox="0 0 36 36" fill="none" xmlns="http://www.w3.org/2000/svg">
    <circle cx="18" cy="18" r="18" fill="#D6F2E8"/>
    <path fill-rule="evenodd" clip-rule="evenodd" d="M15.5 10.5003C15.5 10.0401 15.1269 9.66699 14.6667 9.66699C14.2064 9.66699 13.8333 10.0401 13.8333 10.5003V11.3337H12.1667C11.2462 11.3337 10.5 12.0799 10.5 13.0003V17.167V24.667C10.5 25.5875 11.2462 26.3337 12.1667 26.3337H23.8333C24.7538 26.3337 25.5 25.5875 25.5 24.667V17.167V13.0003C25.5 12.0799 24.7538 11.3337 23.8333 11.3337H22.1667V10.5003C22.1667 10.0401 21.7936 9.66699 21.3333 9.66699C20.8731 9.66699 20.5 10.0401 20.5 10.5003V11.3337H15.5V10.5003ZM23.8333 16.3337V13.0003H22.1667V13.8337C22.1667 14.2939 21.7936 14.667 21.3333 14.667C20.8731 14.667 20.5 14.2939 20.5 13.8337V13.0003H15.5V13.8337C15.5 14.2939 15.1269 14.667 14.6667 14.667C14.2064 14.667 13.8333 14.2939 13.8333 13.8337V13.0003H12.1667V16.3337H23.8333ZM12.1667 18.0003H23.8333V24.667H12.1667V18.0003Z" fill="#13B67B"/>
</svg>
