<svg width="36" height="36" viewBox="0 0 36 36" fill="none" xmlns="http://www.w3.org/2000/svg">
    <circle cx="18" cy="18" r="18" fill="#D6F2E8"/>
    <path fill-rule="evenodd" clip-rule="evenodd" d="M16.1314 13.417C16.1314 12.6395 16.3554 12.1247 16.6508 11.8172C16.9303 11.5264 17.3562 11.3337 17.9998 11.3337C18.6435 11.3337 19.0694 11.5264 19.3489 11.8172C19.6443 12.1247 19.8682 12.6395 19.8682 13.417V13.8337H16.1314V13.417ZM14.263 15.5003V17.167C14.263 17.6272 14.6813 18.0003 15.1972 18.0003C15.7132 18.0003 16.1314 17.6272 16.1314 17.167V15.5003H19.8682V17.167C19.8682 17.6272 20.2865 18.0003 20.8025 18.0003C21.3184 18.0003 21.7367 17.6272 21.7367 17.167V15.5003H23.6742L24.4647 24.667H11.535L12.3255 15.5003H14.263ZM14.263 13.8337V13.417C14.263 12.3711 14.5643 11.4277 15.2322 10.7326C15.916 10.021 16.8914 9.66699 17.9998 9.66699C19.1082 9.66699 20.0837 10.021 20.7675 10.7326C21.4354 11.4277 21.7367 12.3711 21.7367 13.417V13.8337H23.6742C24.6505 13.8337 25.4622 14.5042 25.5371 15.3725L26.3276 24.5392C26.411 25.5072 25.553 26.3337 24.4647 26.3337H11.535C10.4467 26.3337 9.58864 25.5072 9.67212 24.5392L10.4626 15.3725C10.5375 14.5042 11.3492 13.8337 12.3255 13.8337H14.263Z" fill="#13B67B"/>
</svg>
