<svg width="36" height="36" viewBox="0 0 36 36" fill="none" xmlns="http://www.w3.org/2000/svg">
    <circle cx="18" cy="18" r="18" fill="#D6F2E8"/>
    <path fill-rule="evenodd" clip-rule="evenodd" d="M14.4883 12.9199C15.4323 11.895 16.6972 11.3337 18.0002 11.3337C19.3031 11.3337 20.568 11.895 21.512 12.9199C22.4581 13.9471 23.0002 15.3539 23.0002 16.8337C23.0002 17.3674 22.8163 18.0471 22.4608 18.8362C22.1104 19.6142 21.6203 20.4397 21.072 21.2482C19.9928 22.8396 18.7327 24.3005 18.0002 25.1099C17.2676 24.3005 16.0076 22.8396 14.9284 21.2482C14.3801 20.4397 13.8899 19.6142 13.5395 18.8362C13.184 18.0471 13.0002 17.3674 13.0002 16.8337C13.0002 15.3539 13.5422 13.9471 14.4883 12.9199ZM18.0002 9.66699C16.2089 9.66699 14.5064 10.4402 13.2624 11.7908C12.0206 13.139 11.3335 14.954 11.3335 16.8337C11.3335 17.7066 11.6214 18.6362 12.0199 19.5207C12.4233 20.4163 12.9691 21.3286 13.549 22.1837C14.7089 23.894 16.0512 25.4424 16.8009 26.2684C17.4471 26.9806 18.5532 26.9805 19.1995 26.2684C19.9492 25.4424 21.2914 23.894 22.4513 22.1837C23.0312 21.3286 23.577 20.4163 23.9805 19.5207C24.3789 18.6362 24.6668 17.7066 24.6668 16.8337C24.6668 14.954 23.9797 13.139 22.7379 11.7908C21.494 10.4402 19.7914 9.66699 18.0002 9.66699ZM17.1668 17.167C17.1668 16.7068 17.5399 16.3337 18.0002 16.3337C18.4604 16.3337 18.8335 16.7068 18.8335 17.167C18.8335 17.6272 18.4604 18.0003 18.0002 18.0003C17.5399 18.0003 17.1668 17.6272 17.1668 17.167ZM18.0002 14.667C16.6195 14.667 15.5002 15.7863 15.5002 17.167C15.5002 18.5477 16.6195 19.667 18.0002 19.667C19.3809 19.667 20.5002 18.5477 20.5002 17.167C20.5002 15.7863 19.3809 14.667 18.0002 14.667Z" fill="#13B67B"/>
</svg>
