<svg width="36" height="36" viewBox="0 0 36 36" fill="none" xmlns="http://www.w3.org/2000/svg">
    <circle cx="18" cy="18" r="18" fill="#D6F2E8"/>
    <path fill-rule="evenodd" clip-rule="evenodd" d="M20.4608 14.667C20.4608 17.4284 18.2223 19.667 15.4608 19.667C12.6994 19.667 10.4608 17.4284 10.4608 14.667C10.4608 11.9056 12.6994 9.66699 15.4608 9.66699C18.2223 9.66699 20.4608 11.9056 20.4608 14.667ZM15.4608 18.0003C17.3018 18.0003 18.7942 16.5079 18.7942 14.667C18.7942 12.826 17.3018 11.3337 15.4608 11.3337C13.6199 11.3337 12.1275 12.826 12.1275 14.667C12.1275 16.5079 13.6199 18.0003 15.4608 18.0003ZM12.1483 22.7402C11.3823 23.0967 11.3332 23.4079 11.3332 23.417V23.4231V23.4292V23.4353V23.4414V23.4475V23.4536V23.4597V23.4658V23.4719V23.478V23.4841V23.4902V23.4963V23.5024V23.5085V23.5146V23.5207V23.5268V23.5329V23.539V23.5451V23.5512V23.5573V23.5634V23.5695V23.5755V23.5816V23.5877V23.5938V23.5999V23.606V23.6121V23.6181V23.6242V23.6303V23.6364V23.6424V23.6485V23.6546V23.6606V23.6667V23.6728V23.6788V23.6849V23.6909V23.697V23.7031V23.7091V23.7152V23.7212V23.7272V23.7333V23.7393V23.7454V23.7514V23.7574V23.7635V23.7695V23.7755V23.7815V23.7875V23.7936V23.7996V23.8056V23.8116V23.8176V23.8236V23.8296V23.8356V23.8416V23.8476V23.8535V23.8595V23.8655V23.8715V23.8775V23.8834V23.8894V23.8953V23.9013V23.9073V23.9132V23.9191V23.9251V23.931V23.937V23.9429V23.9488V23.9547V23.9607V23.9666V23.9725V23.9784V23.9843V23.9902V23.9961V24.002V24.0078V24.0137V24.0196V24.0255V24.0313V24.0372V24.043V24.0489V24.0547V24.0606V24.0664V24.0722V24.078V24.0839V24.0897V24.0955V24.1013V24.1071V24.1129V24.1187V24.1245V24.1302V24.136V24.1418V24.1475V24.1533V24.159V24.1648V24.1705V24.1762V24.182V24.1877V24.1934V24.1991V24.2048V24.2105V24.2162V24.2219V24.2275V24.2332V24.2389V24.2445V24.2502V24.2558V24.2615V24.2671V24.2727V24.2783V24.284V24.2896V24.2952V24.3007V24.3063V24.3119V24.3175V24.323V24.3286V24.3341V24.3397V24.3452V24.3507V24.3563V24.3618V24.3673V24.3728V24.3783V24.3837V24.3892V24.3947V24.4001V24.4056V24.411V24.4165V24.4219V24.4273V24.4327V24.4381V24.4435V24.4489V24.4543V24.4596V24.465V24.4704V24.4757V24.481V24.4864V24.4917V24.497V24.5023V24.5076V24.5129V24.5182V24.5234V24.5287V24.5339V24.5392V24.5444V24.5496V24.5548V24.56V24.5652V24.5704V24.5756V24.5808V24.5859V24.5911V24.5962V24.6014V24.6065V24.6116V24.6167V24.6218V24.6269V24.6319V24.637V24.642V24.6471V24.6521V24.6571V24.6622V24.6672V24.6721V24.6771V24.6821V24.6871V24.692V24.697V24.7019V24.7068V24.7117V24.7166V24.7215V24.7264V24.7312V24.7361V24.7409V24.7458V24.7506V24.7554V24.7602V24.765V24.7698V24.7745V24.7793V24.784V24.7888V24.7935V24.7982V24.8029V24.8076V24.8123V24.817V24.8216V24.8262V24.8309V24.8355V24.8401V24.8447V24.8493V24.8539V24.8584V24.863V24.8675V24.872V24.8765V24.881V24.8855V24.89V24.8945V24.8989V24.9033V24.9078V24.9122V24.9166V24.921V24.9253V24.9297V24.9341V24.9384V24.9427V24.947V24.9513V24.9556V24.9599V24.9641V24.9684V24.9726V24.9768V24.981V24.9852V24.9894V24.9936V24.9977V25.0019V25.006V25.0101V25.0142V25.0183V25.0224V25.0264V25.0305V25.0345V25.0385V25.0425V25.0465V25.0505V25.0544V25.0584V25.0623V25.0662V25.0701V25.074V25.0779V25.0817V25.0856V25.0894V25.0932V25.097V25.1008V25.1046V25.1083V25.1121V25.1158V25.1195V25.1232V25.1269V25.1306V25.1342V25.1379V25.1415V25.1451V25.1487V25.1522V25.1558V25.1593V25.1629V25.1664V25.1699V25.1734V25.1768V25.1803V25.1837V25.1871V25.1906V25.1939V25.1973V25.2007V25.204V25.2073V25.2106V25.2139V25.2172V25.2205V25.2237V25.2269V25.2302V25.2333V25.2365V25.2397V25.2428V25.246V25.2491V25.2522V25.2552V25.2583V25.2613V25.2644V25.2674V25.2704V25.2733V25.2763V25.2793V25.2822V25.2851V25.288V25.2908V25.2937V25.2965V25.2994V25.3022V25.3049V25.3077V25.3105V25.3132V25.3159V25.3186V25.3213V25.324V25.3266V25.3292V25.3318V25.3344V25.337V25.3395V25.3421V25.3446V25.3471V25.3496V25.352V25.3545V25.3569V25.3593V25.3617V25.3641V25.3664V25.3687V25.3711V25.3734V25.3756V25.3779V25.3801V25.3823V25.3845V25.3867V25.3889V25.391V25.3931V25.3952V25.3973V25.3994V25.4014V25.4035V25.4055V25.4075V25.4094V25.4114V25.4133V25.4152V25.4171V25.419V25.4208V25.4226V25.4244V25.4262V25.428V25.4298V25.4315V25.4332V25.4349V25.4365V25.4382V25.4398V25.4414V25.443V25.4446V25.4461V25.4476V25.4491V25.4506V25.4521V25.4535V25.455V25.4564V25.4577V25.4591V25.4604V25.4617V25.463V25.4643V25.4656V25.4668V25.468V25.4692V25.4703V25.4715V25.4726V25.4737V25.4748V25.4759V25.4769V25.4779V25.4789V25.4799V25.4808V25.4817V25.4827V25.4835V25.4844V25.4852V25.4861V25.4869V25.4876V25.4884V25.4891V25.4898V25.4905V25.4911V25.4918V25.4924V25.493V25.4936V25.4941V25.4946V25.4951V25.4956V25.4961V25.4965V25.4969V25.4973V25.4977V25.498V25.4983V25.4986V25.4989V25.4991V25.4994V25.4996V25.4997V25.4999V25.5V25.5001V25.5002V25.5003V25.5003C11.3332 25.9606 10.9601 26.3337 10.4998 26.3337C10.0396 26.3337 9.6665 25.9606 9.6665 25.5003V25.5003V25.5002V25.5001V25.5V25.4999V25.4997V25.4996V25.4994V25.4991V25.4989V25.4986V25.4983V25.498V25.4977V25.4973V25.4969V25.4965V25.4961V25.4956V25.4951V25.4946V25.4941V25.4936V25.493V25.4924V25.4918V25.4911V25.4905V25.4898V25.4891V25.4884V25.4876V25.4869V25.4861V25.4852V25.4844V25.4835V25.4827V25.4817V25.4808V25.4799V25.4789V25.4779V25.4769V25.4759V25.4748V25.4737V25.4726V25.4715V25.4703V25.4692V25.468V25.4668V25.4656V25.4643V25.463V25.4617V25.4604V25.4591V25.4577V25.4564V25.455V25.4535V25.4521V25.4506V25.4491V25.4476V25.4461V25.4446V25.443V25.4414V25.4398V25.4382V25.4365V25.4349V25.4332V25.4315V25.4298V25.428V25.4262V25.4244V25.4226V25.4208V25.419V25.4171V25.4152V25.4133V25.4114V25.4094V25.4075V25.4055V25.4035V25.4014V25.3994V25.3973V25.3952V25.3931V25.391V25.3889V25.3867V25.3845V25.3823V25.3801V25.3779V25.3756V25.3734V25.3711V25.3687V25.3664V25.3641V25.3617V25.3593V25.3569V25.3545V25.352V25.3496V25.3471V25.3446V25.3421V25.3395V25.337V25.3344V25.3318V25.3292V25.3266V25.324V25.3213V25.3186V25.3159V25.3132V25.3105V25.3077V25.3049V25.3022V25.2994V25.2965V25.2937V25.2908V25.288V25.2851V25.2822V25.2793V25.2763V25.2733V25.2704V25.2674V25.2644V25.2613V25.2583V25.2552V25.2522V25.2491V25.246V25.2428V25.2397V25.2365V25.2333V25.2302V25.2269V25.2237V25.2205V25.2172V25.2139V25.2106V25.2073V25.204V25.2007V25.1973V25.1939V25.1906V25.1871V25.1837V25.1803V25.1768V25.1734V25.1699V25.1664V25.1629V25.1593V25.1558V25.1522V25.1487V25.1451V25.1415V25.1379V25.1342V25.1306V25.1269V25.1232V25.1195V25.1158V25.1121V25.1083V25.1046V25.1008V25.097V25.0932V25.0894V25.0856V25.0817V25.0779V25.074V25.0701V25.0662V25.0623V25.0584V25.0544V25.0505V25.0465V25.0425V25.0385V25.0345V25.0305V25.0264V25.0224V25.0183V25.0142V25.0101V25.006V25.0019V24.9977V24.9936V24.9894V24.9852V24.981V24.9768V24.9726V24.9684V24.9641V24.9599V24.9556V24.9513V24.947V24.9427V24.9384V24.9341V24.9297V24.9253V24.921V24.9166V24.9122V24.9078V24.9033V24.8989V24.8945V24.89V24.8855V24.881V24.8765V24.872V24.8675V24.863V24.8584V24.8539V24.8493V24.8447V24.8401V24.8355V24.8309V24.8262V24.8216V24.817V24.8123V24.8076V24.8029V24.7982V24.7935V24.7888V24.784V24.7793V24.7745V24.7698V24.765V24.7602V24.7554V24.7506V24.7458V24.7409V24.7361V24.7312V24.7264V24.7215V24.7166V24.7117V24.7068V24.7019V24.697V24.692V24.6871V24.6821V24.6771V24.6721V24.6672V24.6622V24.6571V24.6521V24.6471V24.642V24.637V24.6319V24.6269V24.6218V24.6167V24.6116V24.6065V24.6014V24.5962V24.5911V24.5859V24.5808V24.5756V24.5704V24.5652V24.56V24.5548V24.5496V24.5444V24.5392V24.5339V24.5287V24.5234V24.5182V24.5129V24.5076V24.5023V24.497V24.4917V24.4864V24.481V24.4757V24.4704V24.465V24.4596V24.4543V24.4489V24.4435V24.4381V24.4327V24.4273V24.4219V24.4165V24.411V24.4056V24.4001V24.3947V24.3892V24.3837V24.3783V24.3728V24.3673V24.3618V24.3563V24.3507V24.3452V24.3397V24.3341V24.3286V24.323V24.3175V24.3119V24.3063V24.3007V24.2952V24.2896V24.284V24.2783V24.2727V24.2671V24.2615V24.2558V24.2502V24.2445V24.2389V24.2332V24.2275V24.2219V24.2162V24.2105V24.2048V24.1991V24.1934V24.1877V24.182V24.1762V24.1705V24.1648V24.159V24.1533V24.1475V24.1418V24.136V24.1302V24.1245V24.1187V24.1129V24.1071V24.1013V24.0955V24.0897V24.0839V24.078V24.0722V24.0664V24.0606V24.0547V24.0489V24.043V24.0372V24.0313V24.0255V24.0196V24.0137V24.0078V24.002V23.9961V23.9902V23.9843V23.9784V23.9725V23.9666V23.9607V23.9547V23.9488V23.9429V23.937V23.931V23.9251V23.9191V23.9132V23.9073V23.9013V23.8953V23.8894V23.8834V23.8775V23.8715V23.8655V23.8595V23.8535V23.8476V23.8416V23.8356V23.8296V23.8236V23.8176V23.8116V23.8056V23.7996V23.7936V23.7875V23.7815V23.7755V23.7695V23.7635V23.7574V23.7514V23.7454V23.7393V23.7333V23.7272V23.7212V23.7152V23.7091V23.7031V23.697V23.6909V23.6849V23.6788V23.6728V23.6667V23.6606V23.6546V23.6485V23.6424V23.6364V23.6303V23.6242V23.6181V23.6121V23.606V23.5999V23.5938V23.5877V23.5816V23.5755V23.5695V23.5634V23.5573V23.5512V23.5451V23.539V23.5329V23.5268V23.5207V23.5146V23.5085V23.5024V23.4963V23.4902V23.4841V23.478V23.4719V23.4658V23.4597V23.4536V23.4475V23.4414V23.4353V23.4292V23.4231V23.417C9.6665 22.3844 10.5326 21.6539 11.4449 21.2292C12.4235 20.7737 13.7721 20.5003 15.3828 20.5003C16.9936 20.5003 18.3421 20.7737 19.3207 21.2292C20.2331 21.6539 21.0991 22.3844 21.0991 23.417L21.0991 25.0446V25.3945V25.4749V25.4941V25.4988V25.4999V25.5002V25.5003V25.5003C21.0991 25.9606 20.726 26.3337 20.2658 26.3337C19.8055 26.3337 19.4324 25.9606 19.4324 25.5003V25.5003V25.5002V25.4999V25.4988V25.4941V25.4749V25.3945V25.0446L19.4324 23.417C19.4324 23.4079 19.3833 23.0967 18.6173 22.7402C17.9176 22.4145 16.8246 22.167 15.3828 22.167C13.941 22.167 12.8481 22.4145 12.1483 22.7402ZM21.1015 11.6522C21.1015 11.1919 21.4746 10.8188 21.9349 10.8188C24.236 10.8188 26.1015 12.6843 26.1015 14.9855C26.1015 17.2867 24.236 19.1522 21.9349 19.1522C21.4746 19.1522 21.1015 18.7791 21.1015 18.3188C21.1015 17.8586 21.4746 17.4855 21.9349 17.4855C23.3156 17.4855 24.4349 16.3662 24.4349 14.9855C24.4349 13.6048 23.3156 12.4855 21.9349 12.4855C21.4746 12.4855 21.1015 12.1124 21.1015 11.6522ZM21.3332 21.3337C21.3332 20.8734 21.7063 20.5003 22.1665 20.5003C23.5727 20.5003 24.6187 20.8935 25.3246 21.521C26.0226 22.1416 26.3332 22.9467 26.3332 23.6485V23.6566V23.6647V23.6728V23.6809V23.6889V23.6969V23.7049V23.7129V23.7209V23.7288V23.7367V23.7446V23.7525V23.7603V23.7682V23.776V23.7838V23.7915V23.7993V23.807V23.8147V23.8224V23.8301V23.8377V23.8454V23.853V23.8605V23.8681V23.8756V23.8832V23.8907V23.8982V23.9056V23.9131V23.9205V23.9279V23.9352V23.9426V23.9499V23.9573V23.9646V23.9718V23.9791V23.9863V23.9935V24.0007V24.0079V24.0151V24.0222V24.0293V24.0364V24.0435V24.0505V24.0576V24.0646V24.0716V24.0786V24.0855V24.0924V24.0994V24.1062V24.1131V24.12V24.1268V24.1336V24.1404V24.1472V24.1539V24.1607V24.1674V24.1741V24.1808V24.1874V24.1941V24.2007V24.2073V24.2139V24.2204V24.2269V24.2335V24.24V24.2464V24.2529V24.2593V24.2658V24.2722V24.2785V24.2849V24.2913V24.2976V24.3039V24.3102V24.3164V24.3227V24.3289V24.3351V24.3413V24.3475V24.3536V24.3598V24.3659V24.372V24.378V24.3841V24.3901V24.3962V24.4021V24.4081V24.4141V24.42V24.426V24.4319V24.4377V24.4436V24.4495V24.4553V24.4611V24.4669V24.4727V24.4784V24.4841V24.4899V24.4956V24.5012V24.5069V24.5125V24.5182V24.5238V24.5293V24.5349V24.5405V24.546V24.5515V24.557V24.5625V24.5679V24.5734V24.5788V24.5842V24.5896V24.5949V24.6003V24.6056V24.6109V24.6162V24.6215V24.6267V24.632V24.6372V24.6424V24.6476V24.6527V24.6579V24.663V24.6681V24.6732V24.6783V24.6834V24.6884V24.6934V24.6984V24.7034V24.7084V24.7133V24.7183V24.7232V24.7281V24.7329V24.7378V24.7426V24.7475V24.7523V24.7571V24.7618V24.7666V24.7713V24.7761V24.7808V24.7854V24.7901V24.7948V24.7994V24.804V24.8086V24.8132V24.8177V24.8223V24.8268V24.8313V24.8358V24.8403V24.8448V24.8492V24.8536V24.858V24.8624V24.8668V24.8712V24.8755V24.8798V24.8841V24.8884V24.8927V24.8969V24.9012V24.9054V24.9096V24.9138V24.9179V24.9221V24.9262V24.9304V24.9345V24.9385V24.9426V24.9467V24.9507V24.9547V24.9587V24.9627V24.9667V24.9706V24.9746V24.9785V24.9824V24.9863V24.9901V24.994V24.9978V25.0016V25.0054V25.0092V25.013V25.0167V25.0205V25.0242V25.0279V25.0316V25.0353V25.0389V25.0426V25.0462V25.0498V25.0534V25.057V25.0605V25.0641V25.0676V25.0711V25.0746V25.0781V25.0815V25.085V25.0884V25.0918V25.0952V25.0986V25.102V25.1053V25.1087V25.112V25.1153V25.1186V25.1219V25.1251V25.1283V25.1316V25.1348V25.138V25.1412V25.1443V25.1475V25.1506V25.1537V25.1568V25.1599V25.163V25.166V25.1691V25.1721V25.1751V25.1781V25.1811V25.184V25.187V25.1899V25.1928V25.1957V25.1986V25.2015V25.2043V25.2072V25.21V25.2128V25.2156V25.2184V25.2211V25.2239V25.2266V25.2293V25.232V25.2347V25.2374V25.2401V25.2427V25.2453V25.248V25.2506V25.2531V25.2557V25.2583V25.2608V25.2633V25.2658V25.2683V25.2708V25.2733V25.2757V25.2782V25.2806V25.283V25.2854V25.2878V25.2901V25.2925V25.2948V25.2972V25.2995V25.3018V25.304V25.3063V25.3085V25.3108V25.313V25.3152V25.3174V25.3196V25.3217V25.3239V25.326V25.3282V25.3303V25.3324V25.3344V25.3365V25.3385V25.3406V25.3426V25.3446V25.3466V25.3486V25.3506V25.3525V25.3545V25.3564V25.3583V25.3602V25.3621V25.3639V25.3658V25.3676V25.3695V25.3713V25.3731V25.3749V25.3767V25.3784V25.3802V25.3819V25.3836V25.3853V25.387V25.3887V25.3904V25.392V25.3937V25.3953V25.3969V25.3985V25.4001V25.4016V25.4032V25.4048V25.4063V25.4078V25.4093V25.4108V25.4123V25.4137V25.4152V25.4166V25.4181V25.4195V25.4209V25.4223V25.4236V25.425V25.4264V25.4277V25.429V25.4303V25.4316V25.4329V25.4342V25.4354V25.4367V25.4379V25.4391V25.4403V25.4415V25.4427V25.4439V25.4451V25.4462V25.4473V25.4484V25.4496V25.4506V25.4517V25.4528V25.4539V25.4549V25.4559V25.4569V25.458V25.4589V25.4599V25.4609V25.4619V25.4628V25.4637V25.4647V25.4656V25.4665V25.4673V25.4682V25.4691V25.4699V25.4707V25.4716V25.4724V25.4732V25.474V25.4747V25.4755V25.4763V25.477V25.4777V25.4784V25.4791V25.4798V25.4805V25.4812V25.4818V25.4825V25.4831V25.4837V25.4843V25.4849V25.4855V25.4861V25.4866V25.4872V25.4877V25.4883V25.4888V25.4893V25.4898V25.4903V25.4907V25.4912V25.4916V25.4921V25.4925V25.4929V25.4933V25.4937V25.4941V25.4944V25.4948V25.4951V25.4955V25.4958V25.4961V25.4964V25.4967V25.497V25.4972V25.4975V25.4977V25.498V25.4982V25.4984V25.4986V25.4988V25.499V25.4991V25.4993V25.4994V25.4996V25.4997V25.4998V25.4999V25.5V25.5001V25.5001V25.5002V25.5002V25.5003V25.5003V25.5003C26.3332 25.9606 25.9601 26.3337 25.4998 26.3337C25.0396 26.3337 24.6665 25.9606 24.6665 25.5003V25.5003V25.5003V25.5002V25.5002V25.5001V25.5001V25.5V25.4999V25.4998V25.4997V25.4996V25.4994V25.4993V25.4991V25.499V25.4988V25.4986V25.4984V25.4982V25.498V25.4977V25.4975V25.4972V25.497V25.4967V25.4964V25.4961V25.4958V25.4955V25.4951V25.4948V25.4944V25.4941V25.4937V25.4933V25.4929V25.4925V25.4921V25.4916V25.4912V25.4907V25.4903V25.4898V25.4893V25.4888V25.4883V25.4877V25.4872V25.4866V25.4861V25.4855V25.4849V25.4843V25.4837V25.4831V25.4825V25.4818V25.4812V25.4805V25.4798V25.4791V25.4784V25.4777V25.477V25.4763V25.4755V25.4747V25.474V25.4732V25.4724V25.4716V25.4707V25.4699V25.4691V25.4682V25.4673V25.4665V25.4656V25.4647V25.4637V25.4628V25.4619V25.4609V25.4599V25.4589V25.458V25.4569V25.4559V25.4549V25.4539V25.4528V25.4517V25.4506V25.4496V25.4484V25.4473V25.4462V25.4451V25.4439V25.4427V25.4415V25.4403V25.4391V25.4379V25.4367V25.4354V25.4342V25.4329V25.4316V25.4303V25.429V25.4277V25.4264V25.425V25.4236V25.4223V25.4209V25.4195V25.4181V25.4166V25.4152V25.4137V25.4123V25.4108V25.4093V25.4078V25.4063V25.4048V25.4032V25.4016V25.4001V25.3985V25.3969V25.3953V25.3937V25.392V25.3904V25.3887V25.387V25.3853V25.3836V25.3819V25.3802V25.3784V25.3767V25.3749V25.3731V25.3713V25.3695V25.3676V25.3658V25.3639V25.3621V25.3602V25.3583V25.3564V25.3545V25.3525V25.3506V25.3486V25.3466V25.3446V25.3426V25.3406V25.3385V25.3365V25.3344V25.3324V25.3303V25.3282V25.326V25.3239V25.3217V25.3196V25.3174V25.3152V25.313V25.3108V25.3085V25.3063V25.304V25.3018V25.2995V25.2972V25.2948V25.2925V25.2901V25.2878V25.2854V25.283V25.2806V25.2782V25.2757V25.2733V25.2708V25.2683V25.2658V25.2633V25.2608V25.2583V25.2557V25.2531V25.2506V25.248V25.2453V25.2427V25.2401V25.2374V25.2347V25.232V25.2293V25.2266V25.2239V25.2211V25.2184V25.2156V25.2128V25.21V25.2072V25.2043V25.2015V25.1986V25.1957V25.1928V25.1899V25.187V25.184V25.1811V25.1781V25.1751V25.1721V25.1691V25.166V25.163V25.1599V25.1568V25.1537V25.1506V25.1475V25.1443V25.1412V25.138V25.1348V25.1316V25.1283V25.1251V25.1219V25.1186V25.1153V25.112V25.1087V25.1053V25.102V25.0986V25.0952V25.0918V25.0884V25.085V25.0815V25.0781V25.0746V25.0711V25.0676V25.0641V25.0605V25.057V25.0534V25.0498V25.0462V25.0426V25.0389V25.0353V25.0316V25.0279V25.0242V25.0205V25.0167V25.013V25.0092V25.0054V25.0016V24.9978V24.994V24.9901V24.9863V24.9824V24.9785V24.9746V24.9706V24.9667V24.9627V24.9587V24.9547V24.9507V24.9467V24.9426V24.9385V24.9345V24.9304V24.9262V24.9221V24.9179V24.9138V24.9096V24.9054V24.9012V24.8969V24.8927V24.8884V24.8841V24.8798V24.8755V24.8712V24.8668V24.8624V24.858V24.8536V24.8492V24.8448V24.8403V24.8358V24.8313V24.8268V24.8223V24.8177V24.8132V24.8086V24.804V24.7994V24.7948V24.7901V24.7854V24.7808V24.7761V24.7713V24.7666V24.7618V24.7571V24.7523V24.7475V24.7426V24.7378V24.7329V24.7281V24.7232V24.7183V24.7133V24.7084V24.7034V24.6984V24.6934V24.6884V24.6834V24.6783V24.6732V24.6681V24.663V24.6579V24.6527V24.6476V24.6424V24.6372V24.632V24.6267V24.6215V24.6162V24.6109V24.6056V24.6003V24.5949V24.5896V24.5842V24.5788V24.5734V24.5679V24.5625V24.557V24.5515V24.546V24.5405V24.5349V24.5293V24.5238V24.5182V24.5125V24.5069V24.5012V24.4956V24.4899V24.4841V24.4784V24.4727V24.4669V24.4611V24.4553V24.4495V24.4436V24.4377V24.4319V24.426V24.42V24.4141V24.4081V24.4021V24.3962V24.3901V24.3841V24.378V24.372V24.3659V24.3598V24.3536V24.3475V24.3413V24.3351V24.3289V24.3227V24.3164V24.3102V24.3039V24.2976V24.2913V24.2849V24.2785V24.2722V24.2658V24.2593V24.2529V24.2464V24.24V24.2335V24.2269V24.2204V24.2139V24.2073V24.2007V24.1941V24.1874V24.1808V24.1741V24.1674V24.1607V24.1539V24.1472V24.1404V24.1336V24.1268V24.12V24.1131V24.1062V24.0994V24.0924V24.0855V24.0786V24.0716V24.0646V24.0576V24.0505V24.0435V24.0364V24.0293V24.0222V24.0151V24.0079V24.0007V23.9935V23.9863V23.9791V23.9718V23.9646V23.9573V23.9499V23.9426V23.9352V23.9279V23.9205V23.9131V23.9056V23.8982V23.8907V23.8832V23.8756V23.8681V23.8605V23.853V23.8454V23.8377V23.8301V23.8224V23.8147V23.807V23.7993V23.7915V23.7838V23.776V23.7682V23.7603V23.7525V23.7446V23.7367V23.7288V23.7209V23.7129V23.7049V23.6969V23.6889V23.6809V23.6728V23.6647V23.6566V23.6485C24.6665 23.4243 24.5607 23.072 24.2172 22.7666C23.8815 22.4682 23.2609 22.167 22.1665 22.167C21.7063 22.167 21.3332 21.7939 21.3332 21.3337Z" fill="#13B67B"/>
</svg>
