<svg width="36" height="36" viewBox="0 0 36 36" fill="none" xmlns="http://www.w3.org/2000/svg">
    <circle cx="18" cy="18" r="18" fill="#D6F2E8"/>
    <path fill-rule="evenodd" clip-rule="evenodd" d="M24.4228 12.7556C24.7482 12.4302 24.7482 11.9025 24.4228 11.5771C24.0973 11.2516 23.5697 11.2516 23.2442 11.5771L11.5776 23.2438C11.2521 23.5692 11.2521 24.0968 11.5776 24.4223C11.903 24.7477 12.4306 24.7477 12.7561 24.4223L24.4228 12.7556ZM13.8335 12.9997C13.3733 12.9997 13.0002 13.3728 13.0002 13.833C13.0002 14.2932 13.3733 14.6663 13.8335 14.6663C14.2937 14.6663 14.6668 14.2932 14.6668 13.833C14.6668 13.3728 14.2937 12.9997 13.8335 12.9997ZM11.3335 13.833C11.3335 12.4523 12.4528 11.333 13.8335 11.333C15.2142 11.333 16.3335 12.4523 16.3335 13.833C16.3335 15.2137 15.2142 16.333 13.8335 16.333C12.4528 16.333 11.3335 15.2137 11.3335 13.833ZM22.1668 21.333C21.7066 21.333 21.3335 21.7061 21.3335 22.1663C21.3335 22.6266 21.7066 22.9997 22.1668 22.9997C22.6271 22.9997 23.0002 22.6266 23.0002 22.1663C23.0002 21.7061 22.6271 21.333 22.1668 21.333ZM19.6668 22.1663C19.6668 20.7856 20.7861 19.6663 22.1668 19.6663C23.5475 19.6663 24.6668 20.7856 24.6668 22.1663C24.6668 23.5471 23.5475 24.6663 22.1668 24.6663C20.7861 24.6663 19.6668 23.5471 19.6668 22.1663Z" fill="#13B67B"/>
</svg>
