<svg width="36" height="36" viewBox="0 0 36 36" fill="none" xmlns="http://www.w3.org/2000/svg">
    <circle cx="18" cy="18" r="18" fill="#D6F2E8"/>
    <path fill-rule="evenodd" clip-rule="evenodd" d="M18.0002 26.6663C22.7866 26.6663 26.6668 22.7861 26.6668 17.9997C26.6668 13.2132 22.7866 9.33301 18.0002 9.33301C13.2137 9.33301 9.3335 13.2132 9.3335 17.9997C9.3335 22.7861 13.2137 26.6663 18.0002 26.6663ZM24.6668 17.9997C24.6668 21.6816 21.6821 24.6663 18.0002 24.6663C14.3183 24.6663 11.3335 21.6816 11.3335 17.9997C11.3335 14.3178 14.3183 11.333 18.0002 11.333C21.6821 11.333 24.6668 14.3178 24.6668 17.9997ZM19.0002 13.833C19.0002 13.2807 18.5524 12.833 18.0002 12.833C17.4479 12.833 17.0002 13.2807 17.0002 13.833V17.5854C17.0002 18.1159 17.2109 18.6246 17.5859 18.9996L18.9597 20.3734C19.3502 20.764 19.9834 20.764 20.3739 20.3735C20.7645 19.9829 20.7645 19.3498 20.3739 18.9592L19.0002 17.5854V13.833Z" fill="#13B67B"/>
</svg>
