<svg width="37" height="36" viewBox="0 0 37 36" fill="none" xmlns="http://www.w3.org/2000/svg">
<g clip-path="url(#clip0_376_6262)">
<path d="M18.3824 36.0001C28.3235 36.0001 36.3824 27.9412 36.3824 18C36.3824 8.05889 28.3235 0 18.3824 0C8.44122 0 0.382324 8.05889 0.382324 18C0.382324 27.9412 8.44122 36.0001 18.3824 36.0001Z" fill="#14CC89"/>
<path d="M36.3824 17.9999C36.3824 27.9 28.2824 36 18.3823 36C12.6449 36 7.58237 33.4125 4.31982 29.25C7.35733 31.725 11.2948 33.1875 15.5698 33.1875C25.4698 33.1875 33.5698 25.0875 33.5698 15.1875C33.5698 10.9125 32.1073 6.975 29.6323 3.9375C33.7949 7.19989 36.3824 12.2624 36.3824 17.9999Z" fill="#13B67B"/>
<path d="M28.1701 12.8253L16.4701 25.6503C15.6825 26.5504 14.3326 26.5504 13.5451 25.6503L8.59503 20.1378C7.92006 19.3503 7.92006 18.1128 8.70752 17.3253C9.49505 16.6503 10.7325 16.6503 11.5201 17.4378L15.0076 21.3753L25.245 10.2378C26.0326 9.45025 27.27 9.33777 28.0576 10.1253C28.845 10.8003 28.845 12.1503 28.1701 12.8253Z" fill="white"/>
</g>
<defs>
<clipPath id="clip0_376_6262">
<rect width="36" height="36" fill="white" transform="translate(0.382324)"/>
</clipPath>
</defs>
</svg>
