<svg width="22" height="20" viewBox="0 0 22 20" fill="none" xmlns="http://www.w3.org/2000/svg">
    <path fill-rule="evenodd" clip-rule="evenodd" d="M1.29192 0.292893C1.68244 -0.0976311 2.31561 -0.0976311 2.70613 0.292893L20.7061 18.2929C21.0967 18.6834 21.0967 19.3166 20.7061 19.7071C20.3156 20.0976 19.6824 20.0976 19.2919 19.7071L16.3289 16.7441C14.7185 17.4968 12.8763 18.0098 10.9994 17.9999C8.23263 17.9854 5.5398 16.8444 3.55575 15.4918C2.55842 14.8119 1.70478 14.055 1.08847 13.3147C0.511959 12.6222 0 11.7746 0 10.933C0 10.497 0.137145 10.0628 0.312521 9.67781C0.493428 9.28065 0.745996 8.86883 1.04671 8.45982C1.64842 7.64142 2.48868 6.77219 3.48169 5.977C3.85741 5.67612 4.26053 5.38154 4.68665 5.10184L1.29192 1.70711C0.901392 1.31658 0.901392 0.683417 1.29192 0.292893ZM6.13541 6.5506C5.64193 6.85303 5.17111 7.18636 4.73184 7.53813C3.85554 8.23987 3.14242 8.98574 2.65807 9.64452C2.41576 9.9741 2.24213 10.2664 2.1326 10.5069C2.01754 10.7595 2 10.8964 2 10.933C2 11.0367 2.11086 11.4169 2.62552 12.035C3.10037 12.6054 3.80624 13.2421 4.6823 13.8393C6.44504 15.041 8.75451 15.9881 11.0099 15.9999C12.2965 16.0067 13.6 15.7061 14.8087 15.2239L12.9749 13.39C12.4127 13.7749 11.7327 14 11 14C9.067 14 7.5 12.433 7.5 10.5C7.5 9.76735 7.72512 9.08727 8.10997 8.52516L6.13541 6.5506ZM9.58521 10.0004L11.4996 11.9148C11.3433 11.97 11.1752 12 11 12C10.1716 12 9.5 11.3284 9.5 10.5C9.5 10.3248 9.53003 10.1567 9.58521 10.0004ZM11.0046 5.00002C10.7527 5.00002 10.4999 5.01449 10.247 5.04222L8.55478 3.33055C9.35031 3.12052 10.1722 3.00002 11.0046 3.00002C13.8404 3.00002 16.5541 4.38172 18.5212 5.94993C19.514 6.74134 20.3544 7.60957 20.9564 8.43319C21.5223 9.20741 22 10.1071 22 10.933C22 11.7838 21.4975 12.64 20.917 13.3462C20.5926 13.7407 20.2026 14.1384 19.7604 14.5258L18.3422 13.1082C18.7536 12.7569 19.1006 12.4063 19.3719 12.0762C19.8808 11.4571 20 11.0618 20 10.933C20 10.7794 19.8602 10.3227 19.3417 9.61333C18.8593 8.95333 18.1487 8.21075 17.2745 7.5138C15.5076 6.10526 13.2236 5.00002 11.0046 5.00002Z" fill="#D7D7D7"/>
</svg>
