<svg width="22" height="15" viewBox="0 0 22 15" fill="none" xmlns="http://www.w3.org/2000/svg">
    <path fill-rule="evenodd" clip-rule="evenodd" d="M2 7.93301C2 7.89636 2.01754 7.75944 2.1326 7.50683C2.24213 7.26636 2.41576 6.97407 2.65807 6.64449C3.14242 5.98571 3.85554 5.23984 4.73184 4.5381C6.50385 3.11907 8.78933 1.99999 11.0046 1.99999C13.2236 1.99999 15.5076 3.10523 17.2745 4.51377C18.1487 5.21072 18.8593 5.95331 19.3417 6.6133C19.8602 7.32268 20 7.7794 20 7.93301C20 8.06179 19.8808 8.45708 19.3719 9.07617C18.8989 9.65163 18.1957 10.2895 17.3224 10.8847C15.5654 12.0821 13.2619 13.0118 11.0099 12.9999C8.75451 12.9881 6.44504 12.0409 4.6823 10.8393C3.80624 10.242 3.10037 9.6054 2.62551 9.03502C2.11086 8.41683 2 8.0367 2 7.93301ZM11.0046 -1.43051e-05C8.16511 -1.43051e-05 5.44828 1.40212 3.48169 2.97697C2.48868 3.77216 1.64842 4.64139 1.04671 5.45979C0.745996 5.8688 0.493429 6.28062 0.312521 6.67778C0.137144 7.0628 0 7.49702 0 7.93301C0 8.77461 0.511959 9.62219 1.08846 10.3147C1.70477 11.0549 2.55842 11.8119 3.55575 12.4918C5.5398 13.8443 8.23263 14.9854 10.9994 14.9999C13.7694 15.0144 16.4636 13.8902 18.4487 12.5374C19.4465 11.8574 20.3006 11.0961 20.917 10.3462C21.4975 9.63994 22 8.78379 22 7.93301C22 7.10707 21.5223 6.20738 20.9564 5.43316C20.3544 4.60954 19.514 3.74131 18.5212 2.9499C16.5541 1.3817 13.8404 -1.43051e-05 11.0046 -1.43051e-05ZM11 11C12.933 11 14.5 9.43298 14.5 7.49999C14.5 5.56699 12.933 3.99999 11 3.99999C9.067 3.99999 7.5 5.56699 7.5 7.49999C7.5 9.43298 9.067 11 11 11ZM12.5 7.49999C12.5 8.32841 11.8284 8.99999 11 8.99999C10.1716 8.99999 9.5 8.32841 9.5 7.49999C9.5 6.67156 10.1716 5.99999 11 5.99999C11.8284 5.99999 12.5 6.67156 12.5 7.49999Z" fill="#D7D7D7"/>
</svg>
