<svg width="100" height="153" viewBox="0 0 100 153" fill="none" xmlns="http://www.w3.org/2000/svg">
    <path d="M49.9734 153C77.5729 153 99.9467 130.614 99.9467 103C99.9467 75.3858 77.5729 53 49.9734 53C22.3738 53 0 75.3858 0 103C0 130.614 22.3738 153 49.9734 153Z" fill="#13B67B"/>
    <path d="M49.9734 100C77.5729 100 99.9467 77.6142 99.9467 50C99.9467 22.3858 77.5729 0 49.9734 0C22.3738 0 0 22.3858 0 50C0 77.6142 22.3738 100 49.9734 100Z" fill="#003822"/>
    <path d="M51.7323 136C46.8249 136 42.1274 135.31 37.6498 133.93C33.1722 132.55 29.0544 130.48 25.3264 127.72C21.5884 124.96 18.3401 121.62 15.5616 117.7C12.7831 113.67 10.6043 109 8.99512 103.7L29.0644 96.05C30.5536 101.78 33.4321 106.24 37.1701 110.06C40.9081 113.77 45.8155 115.63 51.8922 115.63C54.131 115.63 56.2699 115.37 58.2988 114.84C60.4377 114.2 62.2967 113.35 63.9058 112.29C65.6149 111.12 66.9442 109.69 67.9037 108C68.8632 106.31 69.3429 104.34 69.3429 102.11C69.3429 99.88 68.9731 98.08 68.2235 96.38C67.4739 94.68 66.1946 93.09 64.3856 91.61C62.6765 90.13 60.3877 88.69 57.4992 87.31C54.7207 85.93 51.2526 84.5 47.0948 83.01L40.0486 80.46C36.9502 79.4 33.8019 77.97 30.6036 76.16C27.5052 74.36 24.6768 72.18 22.1181 69.64C19.5595 67.09 17.4206 64.12 15.7115 60.73C14.1124 57.23 13.3128 53.31 13.3128 48.96C13.3128 44.61 14.1624 40.37 15.8714 36.55C17.6905 32.63 20.1891 29.23 23.3974 26.37C26.7057 23.4 30.6036 21.12 35.0812 19.53C39.6688 17.83 44.7361 16.98 50.2831 16.98C55.8301 16.98 61.0074 17.78 65.1652 19.37C69.4329 20.85 73.011 22.82 75.8894 25.26C78.8778 27.59 81.2766 30.19 83.0956 33.06C84.9146 35.92 86.2439 38.63 87.0935 41.17L68.0436 49.12C66.9742 45.94 65.0052 43.07 62.1168 40.53C59.3383 37.98 55.5003 36.71 50.5929 36.71C45.6855 36.71 42.0075 37.82 38.9092 40.05C35.8108 42.17 34.2716 44.98 34.2716 48.48C34.2716 51.98 35.7608 54.79 38.7492 57.23C41.7377 59.56 46.4851 61.84 52.9917 64.07L60.1978 66.46C64.7854 68.05 68.9531 69.91 72.6812 72.03C76.5191 74.05 79.7774 76.48 82.4459 79.35C85.2245 82.21 87.3034 85.5 88.6926 89.21C90.1818 92.82 90.9314 97.01 90.9314 101.78C90.9314 107.72 89.7021 112.86 87.2534 117.21C84.9046 121.45 81.8662 124.95 78.1282 127.71C74.3902 130.47 70.1825 132.54 65.485 133.92C60.7875 135.3 56.1999 135.99 51.7223 135.99L51.7323 136Z" fill="white"/>
</svg>
