<svg width="24" height="24" viewBox="0 0 24 24" fill="none" xmlns="http://www.w3.org/2000/svg">
<path fill-rule="evenodd" clip-rule="evenodd" d="M3.97137 2C2.88261 2 2 2.89543 2 4V20C2 21.1046 2.88261 22 3.97137 22H19.7423C20.8311 22 21.7137 21.1046 21.7137 20V16C21.7137 15.4477 21.2724 15 20.728 15C20.1836 15 19.7423 15.4477 19.7423 16V20H3.97137V4H11.8569C12.4012 4 12.8425 3.55228 12.8425 3C12.8425 2.44772 12.4012 2 11.8569 2H3.97137ZM19.8089 2.88379C19.043 2.2252 17.9116 2.25572 17.1814 2.95468L7.34882 12.3657C7.10807 12.5961 6.92839 12.8843 6.82633 13.2037L6.10534 15.4602C5.57719 17.1132 7.23502 18.6161 8.79487 17.8984L11.1068 16.8347C11.305 16.7434 11.487 16.6195 11.6454 16.468L21.3814 7.14935C22.2365 6.33095 22.2 4.94006 21.3033 4.16893L19.8089 2.88379ZM18.5342 4.40945L20.0286 5.69458L10.2926 15.0132L7.98064 16.0769L8.70163 13.8204L18.5342 4.40945Z" fill="#13B67B"/>
</svg>
