<svg width="16" height="21" viewBox="0 0 16 21" fill="none" xmlns="http://www.w3.org/2000/svg">
<path fill-rule="evenodd" clip-rule="evenodd" d="M3.7858 3.90346C4.91857 2.6736 6.43648 2 8 2C9.56352 2 11.0814 2.6736 12.2142 3.90346C13.3495 5.13609 14 6.82424 14 8.6C14 9.24052 13.7794 10.0562 13.3528 11.0031C12.9323 11.9367 12.3441 12.9272 11.6862 13.8975C10.3911 15.8071 8.87903 17.5602 8 18.5315C7.12097 17.5602 5.60887 15.8071 4.31385 13.8975C3.65587 12.9272 3.06774 11.9367 2.64718 11.0031C2.22064 10.0562 2 9.24052 2 8.6C2 6.82424 2.65049 5.13609 3.7858 3.90346ZM8 0C5.85049 0 3.80745 0.927823 2.31471 2.54851C0.82451 4.16644 0 6.34446 0 8.6C0 9.64756 0.345539 10.7631 0.82365 11.8245C1.30774 12.8991 1.96271 13.9939 2.65858 15.02C4.05047 17.0725 5.66121 18.9305 6.56084 19.9217C7.33636 20.7763 8.66364 20.7763 9.43916 19.9217C10.3388 18.9304 11.9495 17.0725 13.3414 15.02C14.0373 13.9939 14.6923 12.8991 15.1764 11.8245C15.6545 10.7631 16 9.64756 16 8.6C16 6.34446 15.1755 4.16644 13.6853 2.54851C12.1926 0.927823 10.1495 0 8 0ZM7 9C7 8.44772 7.44772 8 8 8C8.55228 8 9 8.44772 9 9C9 9.55228 8.55228 10 8 10C7.44772 10 7 9.55228 7 9ZM8 6C6.34315 6 5 7.34315 5 9C5 10.6569 6.34315 12 8 12C9.65685 12 11 10.6569 11 9C11 7.34315 9.65685 6 8 6Z" fill="#13B67B"/>
</svg>
