<svg width="24" height="24" viewBox="0 0 24 24" fill="none" xmlns="http://www.w3.org/2000/svg">
<path fill-rule="evenodd" clip-rule="evenodd" d="M3.48711 10.9485C2.90636 10.9485 2.43557 11.4192 2.43557 12C2.43557 12.5808 2.90636 13.0515 3.48711 13.0515L10.8479 13.0515L10.8479 20.4124C10.8479 20.9931 11.3187 21.4639 11.8995 21.4639C12.4802 21.4639 12.951 20.9931 12.951 20.4124L12.951 13.0515H20.3119C20.8926 13.0515 21.3634 12.5808 21.3634 12C21.3634 11.4192 20.8926 10.9485 20.3119 10.9485H12.951L12.951 3.58762C12.951 3.00687 12.4802 2.53607 11.8995 2.53607C11.3187 2.53607 10.8479 3.00687 10.8479 3.58762L10.8479 10.9485L3.48711 10.9485Z" fill="#13B67B"/>
</svg>
