<svg width="120" height="120" viewBox="0 0 120 120" fill="none" xmlns="http://www.w3.org/2000/svg">
<g clip-path="url(#clip0_112_3537)">
<path d="M119.816 32.1695C118.956 15.8232 104.988 2.6518 89.92 3.91156C79.8175 4.75625 60.8526 9.72477 63.055 25.6297C64.8508 38.5981 83.1792 31.5207 87.8111 46.1293C94.9748 68.7223 48.9724 102.622 30.502 84.8862C24.817 79.4274 31.2508 64.4012 33.3438 61.0187C38.6043 52.5172 33.2571 43.9248 24.318 44.1085C0.183946 44.6047 -0.734336 65.394 0.239257 79.663C2.52113 113.112 43.5267 121.857 66.5109 112.853C118.677 92.4172 120.918 53.1092 119.816 32.1695Z" fill="url(#paint0_linear_112_3537)"/>
<path opacity="0.1" d="M110.593 44.952H78.5399V19.2942C78.5399 16.7257 76.4624 14.6426 73.8902 14.6426H20.002C17.4337 14.6426 15.3522 16.7257 15.3522 19.2942V52.8759C15.3522 53.1579 15.3815 53.4326 15.4293 53.7005H10.2391C8.88719 53.7005 7.79102 54.7964 7.79102 56.1485V74.7926C7.79102 76.1444 8.88695 77.2406 10.2391 77.2406H24.5238V104.932C24.5238 107.503 26.605 109.582 29.1735 109.582H83.0849C85.6476 109.569 87.7115 107.495 87.7115 104.932V87.8348H110.616C113.179 87.8212 115.243 85.7477 115.243 83.1851V49.6036C115.243 47.0351 113.165 44.952 110.593 44.952ZM46.9373 57.5257H52.0551V66.6991H46.9373V57.5257Z" fill="#2A2AB5"/>
<path d="M78.5398 13.6692V47.2509C78.5398 49.8136 76.4759 51.8871 73.9132 51.9007H20.0018C17.4333 51.9007 15.3521 49.8213 15.3521 47.2509V13.6692C15.3521 11.1009 17.4333 9.01758 20.0018 9.01758H73.8903C76.4625 9.01758 78.5398 11.1009 78.5398 13.6692Z" fill="#02FFB2"/>
<path d="M78.5402 13.668V17.569L48.6194 36.5346C47.5544 37.2096 46.1937 37.2096 45.1284 36.5304L15.3511 17.569V13.668C15.3511 11.1007 17.4342 9.01758 20.0015 9.01758H73.89C76.4615 9.01758 78.5402 11.1007 78.5402 13.668Z" fill="#01EBA4"/>
<path d="M15.3511 47.251L45.2707 28.2851C46.3364 27.6094 47.6967 27.6108 48.7612 28.2886L78.539 47.251C78.539 49.8174 76.4562 51.9003 73.8897 51.9003H20.0004C17.4293 51.9003 15.3511 49.8174 15.3511 47.251Z" fill="#96FFD1"/>
<path d="M65.6186 46.6542C69.3826 46.6542 72.434 43.6029 72.434 39.8388C72.434 36.0748 69.3826 33.0234 65.6186 33.0234C61.8546 33.0234 58.8032 36.0748 58.8032 39.8388C58.8032 43.6029 61.8546 46.6542 65.6186 46.6542Z" fill="#00D78F"/>
<path d="M65.6187 44.0567C67.9481 44.0567 69.8365 42.1683 69.8365 39.8389C69.8365 37.5095 67.9481 35.6211 65.6187 35.6211C63.2893 35.6211 61.4009 37.5095 61.4009 39.8389C61.4009 42.1683 63.2893 44.0567 65.6187 44.0567Z" fill="#01EBA4"/>
<path d="M55.1802 32.3762L48.6187 36.5349C47.5539 37.2087 46.1927 37.2087 45.1281 36.5312L38.7109 32.4437L45.2706 28.2849C46.3373 27.6092 47.6966 27.6111 48.7612 28.2887L55.1802 32.3762Z" fill="#02FFB2"/>
<path d="M78.5383 13.6693L48.6203 32.6359C47.5537 33.3116 46.1925 33.3097 45.1298 32.6321L15.3506 13.6693C15.3506 11.1029 17.4337 9.01953 20.0004 9.01953H73.8907C76.4611 9.01977 78.5383 11.1029 78.5383 13.6693Z" fill="#DBFCED"/>
<path d="M115.243 43.9798V77.5615C115.243 80.1241 113.179 82.1977 110.617 82.2113H56.7049C54.1364 82.2113 52.0552 80.1319 52.0552 77.5615V43.9798C52.0552 41.4113 54.1364 39.3281 56.7049 39.3281H110.593C113.166 39.3281 115.243 41.4113 115.243 43.9798Z" fill="#8298FD"/>
<path d="M115.243 43.9786V47.8795L85.3221 66.8452C84.2571 67.5202 82.8963 67.5202 81.8311 66.8409L52.0537 47.8795V43.9786C52.0537 41.4112 54.1368 39.3281 56.7042 39.3281H110.593C113.164 39.3281 115.243 41.4112 115.243 43.9786Z" fill="#6582FD"/>
<path d="M52.0542 77.5615L81.9738 58.5957C83.0395 57.92 84.3998 57.9214 85.4644 58.5992L115.242 77.5615C115.242 80.1279 113.159 82.2108 110.593 82.2108H56.7035C54.1324 82.2108 52.0542 80.1279 52.0542 77.5615Z" fill="#9EAFFD"/>
<path d="M102.321 76.9648C106.086 76.9648 109.137 73.9134 109.137 70.1494C109.137 66.3853 106.086 63.334 102.321 63.334C98.5575 63.334 95.5061 66.3853 95.5061 70.1494C95.5061 73.9134 98.5575 76.9648 102.321 76.9648Z" fill="#4369FC"/>
<path d="M102.322 74.3673C104.651 74.3673 106.539 72.4789 106.539 70.1495C106.539 67.82 104.651 65.9316 102.322 65.9316C99.9921 65.9316 98.1038 67.82 98.1038 70.1495C98.1038 72.4789 99.9921 74.3673 102.322 74.3673Z" fill="#6582FD"/>
<path d="M91.8831 62.6867L85.3216 66.8455C84.2568 67.5193 82.8955 67.5193 81.831 66.8417L75.4138 62.7542L81.9735 58.5955C83.0401 57.9197 84.3995 57.9216 85.4641 58.5992L91.8831 62.6867Z" fill="#8298FD"/>
<path d="M115.241 43.9796L85.3235 62.9462C84.2568 63.6219 82.8956 63.62 81.8329 62.9424L52.0537 43.9798C52.0537 41.4134 54.1368 39.3301 56.7035 39.3301H110.594C113.164 39.3298 115.241 41.413 115.241 43.9796Z" fill="#B6C4FF"/>
<path d="M87.7117 65.7259V99.3076C87.7117 101.87 85.6478 103.944 83.0851 103.957H29.1737C26.6052 103.957 24.5239 101.878 24.5239 99.3076V65.7259C24.5239 63.1576 26.6052 61.0742 29.1737 61.0742H83.0621C85.6344 61.0742 87.7117 63.1576 87.7117 65.7259Z" fill="#FF7EB7"/>
<path d="M46.9362 61.0742V73.8547C46.9362 75.207 45.8417 76.3039 44.4894 76.3039H24.5229V65.7266C24.5229 63.1578 26.6042 61.0742 29.173 61.0742H46.9362Z" fill="#FF5BA7"/>
<path d="M87.7121 65.7247V69.6256L57.7913 88.5912C56.7263 89.2662 55.3655 89.2662 54.3003 88.587L24.5229 69.6256V65.7247C24.5229 63.1573 26.6061 61.0742 29.1734 61.0742H83.0619C85.6334 61.0745 87.7121 63.1573 87.7121 65.7247Z" fill="#FF5BA7"/>
<path d="M24.5229 99.3076L54.4426 80.3417C55.5083 79.666 56.8686 79.6675 57.9331 80.3453L87.7109 99.3076C87.7109 101.874 85.628 103.957 83.0616 103.957H29.1722C26.6012 103.957 24.5229 101.874 24.5229 99.3076Z" fill="#FFA7CE"/>
<path d="M74.7902 98.7128C78.5543 98.7128 81.6056 95.6615 81.6056 91.8974C81.6056 88.1334 78.5543 85.082 74.7902 85.082C71.0262 85.082 67.9749 88.1334 67.9749 91.8974C67.9749 95.6615 71.0262 98.7128 74.7902 98.7128Z" fill="#FD2C8E"/>
<path d="M74.7903 96.1153C77.1198 96.1153 79.0081 94.2269 79.0081 91.8975C79.0081 89.5681 77.1198 87.6797 74.7903 87.6797C72.4609 87.6797 70.5725 89.5681 70.5725 91.8975C70.5725 94.2269 72.4609 96.1153 74.7903 96.1153Z" fill="#FF5BA7"/>
<path d="M64.3521 84.4328L57.7905 88.5915C56.7258 89.2654 55.3645 89.2654 54.3 88.5878L47.8828 84.5003L54.4425 80.3415C55.5091 79.6658 56.8685 79.6677 57.933 80.3453L64.3521 84.4328Z" fill="#FF7EB7"/>
<path d="M87.7102 65.7257L57.7922 84.6923C56.7256 85.368 55.3643 85.3661 54.3017 84.6885L24.5225 65.7259C24.5225 63.1595 26.6056 61.0762 29.1722 61.0762H83.0625C85.6327 61.0759 87.7102 63.1593 87.7102 65.7257Z" fill="#FFC3DE"/>
<path d="M46.9362 61.0742V73.8547C46.9362 75.207 45.8417 76.3039 44.4894 76.3039H41.1378L24.5229 65.7242C24.5253 63.1555 26.6042 61.0742 29.173 61.0742H46.9362Z" fill="#FFA7CE"/>
<path d="M44.4892 71.615H10.2391C8.88719 71.615 7.79102 70.519 7.79102 69.1669V50.5229C7.79102 49.171 8.88695 48.0748 10.2391 48.0748H28.2648L32.9781 43.3615C33.9341 42.4055 35.4841 42.4055 36.4401 43.3615L41.1534 48.0748H44.489C45.8409 48.0748 46.937 49.1708 46.937 50.5229V69.1669C46.9373 70.519 45.8411 71.615 44.4892 71.615Z" fill="#02FFB2"/>
<path d="M44.4892 71.615H10.2391C8.88719 71.615 7.79102 70.519 7.79102 69.1669V50.5229C7.79102 49.171 8.88695 48.0748 10.2391 48.0748H28.2648L32.9781 43.3615C33.9341 42.4055 35.4841 42.4055 36.4401 43.3615L41.1534 48.0748H44.489C45.8409 48.0748 46.937 49.1708 46.937 50.5229V69.1669C46.9373 70.519 45.8411 71.615 44.4892 71.615Z" fill="#02FFB2"/>
<path d="M31.0233 71.6156C30.6235 71.2638 30.3399 70.7245 30.3399 69.9253C30.3399 67.9082 32.6532 66.956 33.7892 66.2263C34.9226 65.5286 35.6644 64.8897 36.0143 64.307V69.9986C35.5074 70.7144 35.0328 71.2455 34.4672 71.6156H42.3008V60.7992C42.3008 59.1981 42.1929 57.9325 41.9752 57.0023C41.7549 56.0697 41.3265 55.2838 40.6852 54.6449C39.9875 53.9449 39.1135 53.4503 38.0658 53.159C35.7917 52.5274 33.3608 52.5395 31.0573 53.012C29.1429 53.4013 27.0256 54.1209 25.8652 55.8002C24.3818 57.9447 25.7452 61.2372 28.4626 61.2372C31.8383 61.2372 33.1651 56.8872 30.252 55.0804C31.0428 54.7621 32.5531 54.3241 34.0489 54.7917C35.2142 55.1563 36.0122 56.2434 36.0146 57.4624V60.887C36.0146 61.6729 35.645 62.2921 34.9008 62.7426C31.831 64.608 27.53 64.75 25.1651 67.7193C24.309 68.7949 23.9827 70.2367 24.129 71.6153H31.0233V71.6156Z" fill="#96FFD1"/>
<path d="M110.593 38.1566L79.7109 38.157V13.6695C79.7109 10.4595 77.099 7.84766 73.889 7.84766H20.0015C16.7915 7.84766 14.1796 10.4595 14.1796 13.6695V46.9041H10.2391C8.24289 46.9041 6.61914 48.5281 6.61914 50.5238V69.1679C6.61914 71.1638 8.24312 72.7876 10.2391 72.7876H44.489C46.4852 72.7876 48.1089 71.1636 48.1089 69.1679V62.2477H83.0617C84.9791 62.2477 86.5391 63.8077 86.5391 65.7252V99.3076C86.5391 101.225 84.9791 102.785 83.0617 102.785H29.1723C27.2549 102.785 25.6949 101.225 25.6949 99.3076V78.6453C25.6949 77.998 25.1704 77.4734 24.523 77.4734C23.8757 77.4734 23.3512 77.998 23.3512 78.6453V99.3076C23.3512 102.517 25.9626 105.129 29.1723 105.129H83.0617C86.2715 105.129 88.8829 102.517 88.8829 99.3076V83.3813H110.593C113.803 83.3813 116.414 80.7699 116.414 77.5604V43.9777C116.414 40.7677 113.803 38.1566 110.593 38.1566ZM45.7652 69.1679C45.7652 69.8715 45.1928 70.4438 44.489 70.4438H10.2391C9.53523 70.4438 8.96289 69.8715 8.96289 69.1679V50.5238C8.96289 49.8202 9.53523 49.2479 10.2391 49.2479H28.2648C28.5756 49.2479 28.8737 49.1246 29.0934 48.9045L33.8069 44.1913C34.0476 43.9503 34.3682 43.8174 34.709 43.8174C35.0498 43.8174 35.3702 43.9501 35.6116 44.1913L40.3248 48.9045C40.5447 49.1244 40.8426 49.2479 41.1534 49.2479H44.4887C45.1926 49.2479 45.7649 49.8202 45.7649 50.5238V69.1679H45.7652ZM48.1089 53.0727H50.8825V59.9038H48.1089V53.0727ZM114.07 77.5604C114.07 79.4778 112.51 81.0376 110.593 81.0376H88.8827V65.7252C88.8827 62.5154 86.2712 59.904 83.0615 59.904H53.2262V43.9777C53.2262 42.0603 54.7862 40.5003 56.7037 40.5003H71.5098C72.1572 40.5003 72.6817 39.9758 72.6817 39.3284C72.6817 38.6811 72.1572 38.1566 71.5098 38.1566H56.7037C53.4939 38.1566 50.8825 40.768 50.8825 43.9777V50.7291H48.1089V50.5241C48.1089 48.5281 46.4849 46.9044 44.489 46.9044H41.639L37.2688 42.5342C36.5852 41.8503 35.6762 41.4739 34.7092 41.4739C33.7422 41.4739 32.8333 41.8505 32.1498 42.5342L27.7797 46.9044H16.5234V13.6695C16.5234 11.7516 18.0836 10.1914 20.0015 10.1914H73.889C75.8069 10.1914 77.3671 11.7516 77.3671 13.6695V39.3284C77.3671 39.9758 77.8916 40.5003 78.539 40.5003H110.593C112.51 40.5003 114.07 42.0603 114.07 43.9777V77.5604H114.07Z" fill="#2A2AB5"/>
<path d="M19.2763 56.6465H14.9209C14.2738 56.6465 13.749 56.1217 13.749 55.4746C13.749 54.8275 14.2738 54.3027 14.9209 54.3027H19.2763C19.9234 54.3027 20.4482 54.8275 20.4482 55.4746C20.4482 56.1217 19.9234 56.6465 19.2763 56.6465Z" fill="white"/>
<path d="M28.6513 61.4238H14.9209C14.2738 61.4238 13.749 60.8991 13.749 60.252C13.749 59.6048 14.2738 59.0801 14.9209 59.0801H28.6513C29.2984 59.0801 29.8232 59.6048 29.8232 60.252C29.8232 60.8991 29.2984 61.4238 28.6513 61.4238Z" fill="white"/>
<path d="M28.6513 66.2012H14.9209C14.2738 66.2012 13.749 65.6764 13.749 65.0293C13.749 64.3822 14.2738 63.8574 14.9209 63.8574H28.6513C29.2984 63.8574 29.8232 64.3822 29.8232 65.0293C29.8232 65.6764 29.2984 66.2012 28.6513 66.2012Z" fill="white"/>
<path d="M16.0551 87.3575C15.4078 87.3575 14.8832 86.833 14.8832 86.1856C14.8832 85.3672 14.2174 84.7013 13.3989 84.7013C12.7516 84.7013 12.2271 84.1768 12.2271 83.5295C12.2271 82.8821 12.7516 82.3576 13.3989 82.3576C14.2174 82.3576 14.8832 81.6915 14.8832 80.873C14.8832 80.2257 15.4078 79.7012 16.0551 79.7012C16.7024 79.7012 17.227 80.2257 17.227 80.873C17.227 81.6915 17.8931 82.3576 18.7115 82.3576C19.3588 82.3576 19.8834 82.8821 19.8834 83.5295C19.8834 84.1768 19.3588 84.7013 18.7115 84.7013C17.8931 84.7013 17.227 85.3672 17.227 86.1856C17.227 86.8327 16.7024 87.3575 16.0551 87.3575Z" fill="#02FFB2"/>
<path d="M96.9318 105.613C96.2845 105.613 95.7599 105.089 95.7599 104.441C95.7599 103.623 95.0941 102.957 94.2756 102.957C93.6283 102.957 93.1038 102.432 93.1038 101.785C93.1038 101.138 93.6283 100.613 94.2756 100.613C95.0941 100.613 95.7599 99.9473 95.7599 99.1289C95.7599 98.4816 96.2845 97.957 96.9318 97.957C97.5791 97.957 98.1037 98.4816 98.1037 99.1289C98.1037 99.9473 98.7695 100.613 99.588 100.613C100.235 100.613 100.76 101.138 100.76 101.785C100.76 102.432 100.235 102.957 99.588 102.957C98.7695 102.957 98.1037 103.623 98.1037 104.441C98.1037 105.089 97.5791 105.613 96.9318 105.613Z" fill="#02FFB2"/>
<path d="M87.7118 33.6895C87.0645 33.6895 86.5399 33.165 86.5399 32.5177C86.5399 31.6992 85.8739 31.0334 85.0554 31.0334C84.4081 31.0334 83.8835 30.5088 83.8835 29.8615C83.8835 29.2141 84.4081 28.6896 85.0554 28.6896C85.8739 28.6896 86.5399 28.0235 86.5399 27.2051C86.5399 26.5577 87.0645 26.0332 87.7118 26.0332C88.3592 26.0332 88.8837 26.5577 88.8837 27.2051C88.8837 28.0235 89.5496 28.6896 90.368 28.6896C91.0153 28.6896 91.5399 29.2141 91.5399 29.8615C91.5399 30.5088 91.0153 31.0334 90.368 31.0334C89.5496 31.0334 88.8837 31.6992 88.8837 32.5177C88.8837 33.165 88.3592 33.6895 87.7118 33.6895Z" fill="#FF7EB7"/>
<path d="M15.1554 101.551C14.5081 101.551 13.9836 101.026 13.9836 100.379C13.9836 99.5606 13.3175 98.8947 12.499 98.8947C11.8517 98.8947 11.3271 98.3702 11.3271 97.7228C11.3271 97.0755 11.8517 96.5509 12.499 96.5509C13.3175 96.5509 13.9836 95.8848 13.9836 95.0664C13.9836 94.4191 14.5081 93.8945 15.1554 93.8945C15.8028 93.8945 16.3273 94.4191 16.3273 95.0664C16.3273 95.8848 16.9932 96.5509 17.8116 96.5509C18.4589 96.5509 18.9835 97.0755 18.9835 97.7228C18.9835 98.3702 18.4589 98.8947 17.8116 98.8947C16.9932 98.8947 16.3273 99.5606 16.3273 100.379C16.3273 101.026 15.8028 101.551 15.1554 101.551Z" fill="#8298FD"/>
<path d="M98.1037 31.0331C97.8039 31.0331 97.5037 30.9188 97.2752 30.6898C96.8175 30.2323 96.8175 29.4903 97.2752 29.0328L99.6189 26.689C100.076 26.2313 100.819 26.2313 101.276 26.689C101.734 27.1465 101.734 27.8885 101.276 28.346L98.9322 30.6898C98.7037 30.9188 98.4035 31.0331 98.1037 31.0331Z" fill="#8298FD"/>
</g>
<defs>
<linearGradient id="paint0_linear_112_3537" x1="16.2511" y1="108.342" x2="111.684" y2="12.9088" gradientUnits="userSpaceOnUse">
<stop offset="0.0112" stop-color="#E2FAEB"/>
<stop offset="0.8941" stop-color="#F1DAE9"/>
<stop offset="1" stop-color="#F3D6E9"/>
</linearGradient>
<clipPath id="clip0_112_3537">
<rect width="120" height="120" fill="white"/>
</clipPath>
</defs>
</svg>
